<svg width="1350" height="544" viewBox="0 0 1350 544" fill="none" xmlns="http://www.w3.org/2000/svg">
<path d="M1574.13 -117.825C1559.79 -143.968 1537.28 -166.174 1515.05 -188C1538.15 -146.171 1559.64 -92.3543 1523.54 -57.7713C1505.05 -40.0892 1474.64 -31.9965 1461.32 -11.2011C1441.8 19.2923 1469.99 55.6436 1471.43 90.3135C1471.68 96.6053 1470.81 103.342 1466.02 108.104C1453.71 120.33 1428.38 108.082 1423.84 92.4719C1419.3 76.8294 1426.17 60.536 1425.78 44.4378C1424.66 -6.91612 1352.2 -48.2684 1368.17 -97.789C1340.76 -57.8145 1319.76 -13.6744 1316.09 32.505C1312.46 78.6303 1327.64 127.099 1364.79 160.966C1383.61 178.127 1407.46 191.221 1424.3 209.814C1449.02 237.075 1455.81 275.357 1441.58 307.586C1432.72 327.73 1415.38 345.803 1391.95 353.982C1368.48 362.14 1338.99 358.788 1321.57 343.178C1297.74 321.775 1303.02 287.56 1312.51 259.215C1321.95 230.869 1333.89 199.703 1318.99 173.105C1319.35 187.022 1319.61 201.461 1312.89 214.164C1306.17 226.845 1290.4 237.27 1274.25 234.764C1255.5 231.9 1245.86 214.641 1232.17 203.381C1214.7 188.997 1187.25 184.039 1164.37 191.155C1212.84 209.141 1243.71 256.275 1236.16 300.697C1234.25 311.944 1230.16 323.233 1227.29 334.445C1205.4 382.359 1202.12 388.141 1195.04 401.621C1192.87 397.159 1189.66 393.101 1184.99 389.723C1176.39 381.939 1124.67 347.35 1124.67 347.35C1124.67 347.35 1157.64 416.077 1144.34 451.016C1140.43 461.293 1135.12 471.061 1119.91 465.953C1114.69 463.166 1111.13 458.19 1109.25 451.016L1100.38 381.583C1099.2 375.793 1094.91 367.623 1087.53 357.082C1073.6 338.543 1050.77 332.326 1019.05 338.441C1017.54 338.98 1017 339.764 1017.42 340.772C1030.15 348.942 1038.46 358.954 1042.37 370.798C1045.27 383.73 1044.46 396.286 1039.94 408.465C1020.02 450.63 997.85 470.104 973.424 466.889C966.043 464.61 964.578 458.067 963.582 450.833C961.43 435.197 986.274 416.476 980.041 394.375C974.773 375.693 954.963 374.569 946.391 357.082C941.579 347.266 938.727 341.361 938.162 330.413C937.439 312.455 950.862 288.605 978.428 258.874C965.226 259.057 947.197 270.32 924.331 292.654C909.747 307.764 899.542 319.944 896.56 341.666C893.616 363.111 907.726 374.738 909.569 396.51C910.747 410.423 908.625 418.742 903.423 431.755C897.039 447.726 891.478 457.426 877.186 467.459C875.778 468.447 874.535 469.295 873.393 470.038C862.269 472.504 852.286 469.149 843.444 459.971C838.816 454.436 836.167 446.642 835.497 436.569C840.627 396.48 840.251 365.782 834.377 344.476C828.074 325.51 815.552 314.267 796.832 310.756L784.394 308.375C798.477 323.693 803.352 340.725 799.024 359.468C793.711 371.94 785.666 382.19 774.878 390.212C757.53 402.462 744.84 402.747 736.789 391.056C733.146 386.762 733.104 378.968 736.653 367.695L761.341 318.346C766.91 304.692 773.554 286.372 773.732 279.657C773.834 274.219 773.536 269.3 772.89 264.834C772.747 262.52 772.271 260.126 771.461 257.653C767.507 242.342 758.799 233.194 748.209 226.432C748.301 226.919 748.388 227.412 748.469 227.91C747.981 245.164 740.714 262.485 726.675 279.854C719.503 287.119 709.85 294.394 697.716 301.69C687.466 307.866 674.703 314.012 659.417 320.127C654.894 322.61 650.874 325.163 647.346 327.799C647.158 327.926 646.971 328.055 646.784 328.185C644.022 319.432 638.237 311.638 632.827 302.91C623.904 288.516 598.345 276.078 598.265 276.039C602.359 280.008 611.185 328.623 606.484 345.3C601.354 361.295 594.904 373.525 587.115 382.011C569.369 399.949 547.455 409.157 521.396 409.656C507.98 409.421 496.747 404.619 487.689 395.25C483.012 387.105 480.289 377.904 479.526 367.644C478.96 353.786 481.442 339.897 486.959 325.988C489.231 320.28 491.776 314.999 494.602 310.156C497.974 304.346 502.79 297.803 509.03 290.508C509.961 288.961 510.118 288.015 509.511 287.669C473.454 294.334 444.599 318.428 422.927 359.941C411.263 384.025 404.112 406.054 401.453 426.017C401.44 426.127 401.429 426.236 401.417 426.346L391.8 449.379C388.419 455.972 385.089 461.111 381.823 464.784C369.322 480.504 355.02 488.847 338.928 489.804C316.732 489.509 306.169 476.119 307.258 449.644C308.388 422.67 322.543 402.117 349.733 387.984C325.464 379.895 300.745 384.565 275.554 402.005C257.013 416.565 245.339 432.55 240.544 449.959C240.096 451.934 239.667 453.876 239.255 455.786C236.101 463.741 234.239 467.951 233.676 468.416C231.415 473.127 227.991 477.807 223.405 482.437C215.701 489.18 208.53 494.447 201.893 498.24C194.265 500.165 188.025 499.863 183.17 497.333C178.071 493.589 176.155 487.738 177.412 479.781L190.436 442.704C192.614 433.689 193.451 426.027 192.949 419.709C190.677 404.68 183.882 393.671 172.544 386.671C175.067 399.715 171.088 412.963 160.597 426.414C159.502 427.79 158.441 429.093 157.415 430.323C153.551 423.662 148.574 417.474 142.577 412.054C124.022 395.28 96.0893 384.904 85.7684 363.626C77.2011 346.012 83.3155 326.043 89.5301 307.732C69.5877 333.808 51.6767 367.159 68.4784 394.818C73.883 403.667 82.4057 410.999 86.8558 420.235C96.6658 440.571 81.2294 466.1 56.7703 473.3C32.3223 480.462 3.2575 470.105 -10.2484 451.38C-23.7985 432.636 -22.4002 407.597 -9.31611 388.627C-0.193798 375.433 14.0883 364.549 19.1487 349.885C25.9516 330.142 14.2885 309.617 10.826 289.253C4.27848 250.662 31.068 209.715 73.1278 194.09C53.2743 187.908 29.4474 192.215 14.2881 204.711C2.41373 214.493 -5.95407 229.486 -22.2231 231.974C-36.2393 234.151 -49.9227 225.095 -55.7601 214.079C-61.5863 203.043 -61.3642 190.5 -61.0536 178.409C-73.9823 201.516 -63.617 228.591 -55.4271 253.216C-47.1927 277.84 -42.6092 307.563 -63.2951 326.156C-78.4101 339.717 -104.001 342.629 -124.365 335.542C-144.696 328.437 -159.745 312.736 -167.435 295.236C-179.787 267.238 -173.894 233.981 -152.442 210.299C-137.827 194.147 -117.129 182.772 -100.794 167.864C-68.5553 138.443 -55.3827 96.3369 -58.5344 56.2667C-61.7193 16.1494 -79.9419 -22.196 -103.735 -56.9229C-89.8744 -13.9031 -152.753 22.0205 -153.73 66.6329C-154.063 80.6178 -148.103 94.7727 -152.043 108.362C-155.982 121.923 -177.967 132.562 -188.643 121.942C-192.805 117.805 -193.559 111.952 -193.337 106.486C-192.094 76.3677 -167.624 44.7882 -184.57 18.2978C-196.123 0.232555 -222.513 -6.79767 -238.56 -22.1584C-269.888 -52.2015 -251.245 -98.9532 -231.191 -135.291C-250.49 -116.331 -270.022 -97.0401 -282.462 -74.3287C-294.925 -51.6173 -299.619 -24.6085 -288.31 -1.46354C-282.484 10.4575 -272.852 20.6448 -264.617 31.5104C-248.77 52.4218 -237.939 78.3561 -246.595 102.142C-255.251 125.928 -289.987 143.145 -315.378 130.715C-331.48 122.837 -338.915 106.203 -340.336 90.4657C-341.745 74.7279 -338.449 58.9242 -338.849 43.1487C-339.004 37.2494 -339.781 31.1331 -343.41 26.1008C-348.792 18.6183 -359.502 15.1977 -370 15.0847L-370 984L991.206 984L1675 984L1675 -14.9C1662.9 -14.7698 1650.56 -10.8323 1644.36 -2.21921C1640.18 3.5735 1639.28 10.6138 1639.1 17.4046C1638.64 35.5639 1642.44 53.7562 1640.82 71.8721C1639.18 89.988 1630.61 109.134 1612.06 118.203C1582.8 132.512 1542.77 112.693 1532.8 85.3126C1522.82 57.9326 1535.3 28.0792 1553.56 4.00778C1563.05 -8.49976 1574.15 -20.2265 1580.87 -33.9489C1593.9 -60.5913 1588.49 -91.6816 1574.13 -117.825Z" fill="url(#paint0_linear_3671_34)"/>
<defs>
<linearGradient id="paint0_linear_3671_34" x1="678.266" y1="319.255" x2="682.07" y2="566.256" gradientUnits="userSpaceOnUse">
<stop stop-color="#3790BF"/>
<stop offset="1" stop-color="#001C30"/>
</linearGradient>
</defs>
</svg>
