<svg width="89" height="31" viewBox="0 0 89 31" fill="none" xmlns="http://www.w3.org/2000/svg">
<path d="M12.4158 0.361902C12.6749 0.500073 12.9291 0.650644 13.1704 0.818143L13.2065 0.843071C13.6187 1.12738 14.0227 1.42046 14.3933 1.7578C14.4204 1.78156 14.4475 1.80522 14.4747 1.8288L14.513 1.86209C14.5389 1.88435 14.565 1.90643 14.5912 1.92832C14.6715 1.99608 14.7415 2.06665 14.8096 2.14655C14.8522 2.19438 14.8975 2.23854 14.9435 2.28312C15.0441 2.38201 15.1409 2.48506 15.2225 2.60042L15.2324 2.64354L15.2424 2.67899L15.2787 2.69653C15.3262 2.72059 15.3476 2.74374 15.3804 2.78529L15.4134 2.82701L15.4484 2.87245L15.4852 2.9199C15.6185 3.09453 15.739 3.27678 15.8549 3.46333C15.8644 3.47863 15.8739 3.49394 15.8837 3.50967C16.0378 3.76005 16.1686 4.02021 16.2904 4.28755L16.3164 4.34436C16.7136 5.22485 16.82 6.12379 16.87 7.07706L16.9094 7.09659L16.9289 7.03756C17.0048 6.95385 17.0912 6.88068 17.1752 6.80534C17.2153 6.76854 17.2542 6.73046 17.2918 6.69116L17.3408 6.64309L17.3802 6.64297L17.3801 6.60365C17.41 6.57612 17.4414 6.55007 17.4733 6.52473L17.5332 6.47655L17.5647 6.45133C17.6142 6.41123 17.6626 6.36983 17.7112 6.32861C17.8336 6.22591 17.9591 6.12771 18.0866 6.03134L18.1182 6.00735C18.2487 5.90869 18.2487 5.90869 18.3025 5.87339L18.3419 5.87326L18.3418 5.83395C18.3891 5.80169 18.4374 5.77081 18.4866 5.74135C18.5786 5.68492 18.6694 5.62852 18.7566 5.56479C18.9511 5.42486 19.1816 5.27086 19.4221 5.24078C19.603 5.2279 19.7854 5.22179 19.9536 5.29806C20.0926 5.36598 20.2121 5.45032 20.3086 5.57213C20.4366 5.76906 20.501 5.99376 20.515 6.22661C20.5303 6.66056 20.4226 7.07041 20.3206 7.48845C20.2015 7.96946 20.2015 7.96946 20.1801 8.46218L20.1816 8.53451C20.2136 9.44962 20.5869 10.3275 21.0347 11.1132L21.0605 11.1584C21.1019 11.2312 21.1435 11.304 21.1851 11.3767C21.2904 11.561 21.3935 11.7464 21.4965 11.9319C21.5635 12.0531 21.6314 12.1739 21.7001 12.2942C21.9835 12.7912 22.2495 13.2975 22.4798 13.8213L22.4992 13.865C22.6273 14.1528 22.7363 14.4478 22.8427 14.7442C22.8565 14.7826 22.8703 14.8209 22.8843 14.8593C23.0997 15.4552 23.262 16.0689 23.3695 16.6934L23.3774 16.7381C23.4255 17.0171 23.4255 17.0171 23.3956 17.1602L23.435 17.16C23.5728 18.8031 23.5028 20.4472 22.8613 22.3711L22.8479 22.4095C22.7008 22.8287 22.5431 23.2452 22.3394 23.6407C22.3087 23.7014 22.279 23.7626 22.2493 23.8238C21.9361 24.4672 21.5678 25.08 21.1485 25.6602C21.1289 25.6873 21.1093 25.7146 21.0898 25.7418C20.9253 25.971 20.754 26.1926 20.572 26.4081L20.539 26.4473C20.3998 26.6115 20.2566 26.7717 20.1101 26.9294C20.083 26.9589 20.0561 26.9886 20.0293 27.0185C19.902 27.1598 19.7696 27.2958 19.6357 27.4309L19.5829 27.4842C19.4951 27.5723 19.4062 27.6576 19.312 27.7389C19.2648 27.7798 19.2192 27.8223 19.1734 27.8648C19.0853 27.9456 18.9948 28.0223 18.9019 28.0976C18.8537 28.1374 18.806 28.1779 18.759 28.2191C18.5865 28.3689 18.403 28.5033 18.2179 28.6369L18.1697 28.6718C16.5136 29.8657 14.5413 30.6867 12.3811 30.9358C12.048 30.9688 11.7153 30.9847 11.3806 30.9908C11.3092 30.9921 11.2377 30.9937 11.1662 30.9953L11.0274 30.9981L10.9639 30.9995C10.8476 31.0015 10.7341 30.9973 10.6183 30.9852C10.5477 30.9788 10.4784 30.9801 10.4074 30.9814C10.2691 30.984 10.2691 30.984 10.1997 30.9726C10.1405 30.963 10.0836 30.9586 10.0238 30.9559C9.65688 30.9373 9.29908 30.8918 8.93732 30.8289L8.89806 30.8221C7.74271 30.6213 6.57627 30.282 5.5438 29.7167C5.50665 29.697 5.50665 29.697 5.45081 29.6802L5.45069 29.6409L5.41884 29.6322C5.33376 29.6069 5.25857 29.5766 5.18263 29.5305L5.13078 29.499C5.01727 29.4286 4.90471 29.3567 4.79224 29.2846L4.73622 29.249L4.68588 29.2168C4.64152 29.1887 4.64152 29.1887 4.5834 29.1719L4.58327 29.1325L4.53938 29.1167C4.48612 29.0941 4.44539 29.0688 4.39888 29.0348L4.35184 29.0006L4.30358 28.9651C4.27167 28.9418 4.23974 28.9186 4.20781 28.8953L4.16526 28.8641C4.13025 28.8381 4.13025 28.8381 4.09035 28.8196L4.09022 28.7803L4.05659 28.765C4.0063 28.7386 3.96386 28.7075 3.91895 28.6727L3.87186 28.6366C3.83386 28.6042 3.83386 28.6042 3.81406 28.5649L3.76355 28.5356L3.71548 28.5063L3.71536 28.467L3.67228 28.4528C3.60918 28.4246 3.56887 28.3903 3.51819 28.3435L3.46594 28.2955C3.41673 28.2491 3.36884 28.2014 3.32082 28.1537C3.29707 28.1332 3.27322 28.1128 3.24929 28.0925C3.1015 27.9652 2.96413 27.826 2.83729 27.6779C2.80934 27.6462 2.78023 27.617 2.7496 27.5879L2.70889 27.5463L2.70876 27.507L2.66941 27.5071C2.6388 27.4726 2.6388 27.4726 2.60398 27.4262C2.56169 27.3705 2.51917 27.3159 2.4731 27.2632L2.43234 27.213L2.43222 27.1737L2.39287 27.1738C2.36881 27.1463 2.36881 27.1463 2.34201 27.1078L2.31184 27.0649L2.28047 27.0194L2.25022 26.9761C2.22948 26.9465 2.2088 26.9168 2.18819 26.887C2.16617 26.8554 2.14394 26.824 2.1215 26.7928C2.03849 26.6769 1.96253 26.5584 1.88996 26.4358L1.85623 26.3789C1.76404 26.222 1.68031 26.0626 1.60171 25.8986L1.57062 25.8371C1.30473 25.2977 1.14401 24.6151 1.18247 24.0128C1.1963 23.8238 1.21892 23.6413 1.26948 23.4581C1.28045 23.3941 1.27477 23.348 1.25885 23.2852C1.23344 23.2454 1.20707 23.2061 1.17976 23.1676L1.17964 23.1282L1.14029 23.1284L1.12057 23.0922C1.0687 22.9974 1.01613 22.9032 0.961545 22.81C0.739388 22.4272 0.542142 22.0196 0.41664 21.5942C0.400171 21.5377 0.380039 21.4824 0.356372 21.4285C0.323838 21.3523 0.305517 21.2779 0.288002 21.1973C0.269153 21.1115 0.249053 21.0284 0.219018 20.9458C0.177809 20.8271 0.158645 20.7045 0.137216 20.581L0.124594 20.5104C0.112211 20.4407 0.10026 20.3709 0.0883683 20.3011L0.0778113 20.2425C0.016618 19.8861 0.000593698 19.5266 0.000896085 19.1655C0.00084987 19.1035 0.000572591 19.0416 6.51862e-05 18.9796C-0.00149719 18.5892 0.024936 18.2033 0.0890327 17.8181L0.100989 17.7419C0.121983 17.6121 0.147632 17.486 0.18363 17.3595C0.201259 17.2973 0.215226 17.2344 0.229625 17.1714C0.326671 16.7709 0.479387 16.3902 0.645302 16.014L0.66761 15.9631C0.741865 15.7949 0.823159 15.6373 0.921677 15.4819C0.955799 15.4272 0.986772 15.3719 1.01693 15.3149C1.05914 15.2356 1.10423 15.1588 1.15147 15.0823C1.40258 14.675 1.62611 14.291 1.64354 13.803C1.64481 13.7101 1.64332 13.6172 1.64158 13.5243C1.63504 13.1524 1.64754 12.7841 1.67668 12.4134L1.68097 12.3586C1.68937 12.2586 1.70068 12.1588 1.7149 12.0594L1.7213 12.0125C1.84348 11.1463 2.121 10.2819 2.51348 9.50139L2.53659 9.45508C2.68969 9.15014 2.8631 8.85878 3.05464 8.5764C3.10677 8.49931 3.15339 8.42075 3.19847 8.33942L3.23782 8.3393L3.25613 8.29255C3.27686 8.24088 3.27686 8.24088 3.29641 8.20151L3.33576 8.20138L3.35143 8.15742C3.37461 8.1034 3.40011 8.06507 3.43658 8.01923L3.47289 7.97304L3.51076 7.92562C3.60332 7.8107 3.60332 7.8107 3.68469 7.68796L3.70787 7.64979L3.74722 7.64966L3.76057 7.61714C3.79397 7.55716 3.83867 7.51073 3.88558 7.46126C3.95743 7.38421 4.02597 7.3061 4.09143 7.22347C4.16488 7.13163 4.24441 7.04919 4.3282 6.96678C4.40547 6.88936 4.47972 6.80848 4.54248 6.71876L4.57057 6.68382L4.60992 6.6837L4.6098 6.64438L4.64915 6.64426L4.64902 6.60494L4.68838 6.60482L4.70307 6.57059C4.73124 6.51919 4.76379 6.48494 4.80537 6.44359L4.854 6.3949L4.90668 6.34274L4.98877 6.26066C5.02715 6.22238 5.06557 6.18412 5.10404 6.14591C5.17093 6.07938 5.23775 6.01278 5.3045 5.9461C5.33998 5.91067 5.37552 5.87528 5.41113 5.83994C5.49775 5.75355 5.58141 5.66598 5.6607 5.57279C5.69781 5.52919 5.73672 5.48735 5.77553 5.44524C5.85488 5.35739 5.92314 5.26451 5.98976 5.16676L6.02169 5.12626L6.06104 5.12613L6.07693 5.09292C6.10228 5.0432 6.12802 4.99545 6.15886 4.9489L6.19822 4.94878L6.21424 4.91348C6.26411 4.81956 6.34206 4.75471 6.42845 4.6944C6.57986 4.60082 6.71869 4.54271 6.8967 4.5283C7.09981 4.52244 7.29023 4.549 7.47742 4.63018C7.62895 4.71263 7.75992 4.82574 7.85462 4.96976C8.04351 5.32663 8.06462 5.68656 8.05325 6.08162C8.04329 6.32913 8.02642 6.58511 7.98472 6.82929C7.97381 6.89903 7.9693 6.96786 7.9653 7.03835L7.96287 7.08017C7.96035 7.12381 7.95788 7.16747 7.95546 7.21115L7.95033 7.30047C7.94617 7.3731 7.94206 7.44572 7.93801 7.51835L7.98461 7.47889L8.03614 7.43941L8.07549 7.43928L8.07537 7.39997C8.10353 7.37198 8.10353 7.37198 8.14288 7.33925C8.23548 7.26001 8.32181 7.17572 8.40764 7.0893L8.45472 7.04194C8.5651 6.92977 8.66629 6.81522 8.76179 6.69011C8.78832 6.65724 8.81486 6.62439 8.84143 6.59157C8.92276 6.4888 9.00015 6.38368 9.0753 6.27631L9.12045 6.21212C9.39174 5.81883 9.61484 5.3819 9.76299 4.92756C9.77564 4.88921 9.78868 4.85101 9.80186 4.81283C9.86119 4.63903 9.90782 4.46558 9.94579 4.28567L9.95447 4.24474C10.1467 3.33234 10.2452 2.30813 10.09 1.38317C10.0471 1.12338 10.0548 0.901322 10.1396 0.650892C10.2065 0.485635 10.3261 0.349067 10.4627 0.236132C10.6306 0.113249 10.8116 0.0314663 11.0193 0.00554433C11.5195 -0.0330855 11.9772 0.134882 12.4158 0.361902ZM11.3615 1.25637C11.3406 1.33134 11.3462 1.39171 11.3568 1.46804C11.366 1.54163 11.3699 1.61539 11.3737 1.68941L11.3764 1.74067C11.3864 1.94934 11.3879 2.15805 11.3884 2.36693L11.3886 2.4295C11.3892 2.75442 11.3803 3.07551 11.3486 3.39907L11.3428 3.46487C11.237 4.64996 10.8724 5.81584 10.1986 6.80347C10.1362 6.89127 10.07 6.97569 10.0026 7.05965L9.9632 7.11007C9.81504 7.29877 9.66023 7.48216 9.49906 7.6599C9.47022 7.69183 9.44153 7.7239 9.41299 7.7561C9.31192 7.8702 9.20772 7.98032 9.10032 8.08846L9.05117 8.13808C9.01714 8.17239 8.98309 8.20668 8.94902 8.24094C8.89747 8.29286 8.846 8.34486 8.79462 8.39694C8.63451 8.55844 8.47548 8.71342 8.29646 8.85391C8.25747 8.88836 8.22006 8.92396 8.18244 8.95993C8.09709 9.03973 8.00873 9.11624 7.91753 9.1893L7.88407 9.21661C7.79415 9.28766 7.70427 9.33863 7.58916 9.35682C7.49328 9.35815 7.41178 9.35733 7.32636 9.31035C7.20343 9.21906 7.14236 9.09252 7.08261 8.95526C6.99254 8.74107 6.92422 8.52567 6.87672 8.2982L6.86761 8.25491C6.85683 8.20071 6.84733 8.14637 6.83792 8.09192L6.83045 8.05092C6.78077 7.77399 6.76889 7.50331 6.77059 7.22226C6.77098 7.15405 6.77094 7.08584 6.77086 7.01763C6.7709 6.97355 6.77096 6.92949 6.77102 6.88543L6.77111 6.82469C6.77182 6.7161 6.77715 6.60952 6.78914 6.50156C6.79435 6.45085 6.79511 6.40087 6.79424 6.34993L6.79353 6.3L6.79273 6.26393C6.71208 6.29125 6.66173 6.32796 6.60005 6.38618L6.54776 6.43486L6.49827 6.4811C6.47425 6.50218 6.45013 6.52315 6.42592 6.544C6.1905 6.75084 5.96802 6.97157 5.74745 7.19397C5.70332 7.23841 5.65914 7.2828 5.6149 7.32712L5.52908 7.41346L5.48982 7.45282C5.4146 7.52892 5.34214 7.6077 5.27259 7.68901C5.23187 7.73637 5.18957 7.78225 5.14732 7.82825C5.06012 7.92447 4.97774 8.02363 4.89656 8.12489C4.86681 8.16152 4.83684 8.19797 4.80665 8.23424C4.42722 8.69215 4.10131 9.17672 3.80073 9.6895C3.77355 9.73326 3.77355 9.73326 3.74304 9.77264C3.71252 9.81521 3.6958 9.85448 3.67778 9.90357C3.64558 9.9878 3.60904 10.0683 3.56926 10.1492C3.08841 11.1277 2.90471 12.2135 2.88963 13.2953C2.87967 13.9828 2.80966 14.5629 2.49228 15.1825L2.45762 15.2513C2.37386 15.4124 2.28016 15.5682 2.18869 15.7251C2.07014 15.9291 1.95689 16.1357 1.84666 16.3443L1.81082 16.4121C1.55033 16.9207 1.2896 17.6133 1.30039 18.1926L1.30106 18.2386L1.30186 18.2725L1.26251 18.2726C1.24533 18.5307 1.24139 18.7877 1.24275 19.0464C1.24301 19.1093 1.24317 19.1723 1.24321 19.2352C1.24407 19.5352 1.24748 19.833 1.29988 20.1293C1.30795 20.1792 1.30795 20.1792 1.30814 20.2382L1.3475 20.2381L1.34847 20.2794C1.36434 20.5959 1.45864 20.9045 1.56702 21.2006L1.5827 21.2443C1.70385 21.5822 1.8459 21.9012 2.01841 22.2161C2.04046 22.2567 2.06225 22.2973 2.08379 22.3381C2.26836 22.6811 2.50309 22.9955 2.75646 23.2904C2.79348 23.3336 2.82442 23.3752 2.85628 23.4229C2.88983 23.4724 2.91895 23.5035 2.96541 23.5403C3.02919 23.5934 3.08441 23.6495 3.13937 23.7117C3.20485 23.7858 3.27594 23.8548 3.35201 23.918C3.38608 23.9468 3.38608 23.9468 3.41771 23.98L3.4453 24.0056L3.48465 24.0055L3.48478 24.0448C3.51576 24.073 3.5481 24.0996 3.58096 24.1256L3.64054 24.1727L3.70179 24.221L3.75875 24.2674L3.8597 24.3496L3.89906 24.3776L3.93841 24.3775L3.93854 24.4168L4.04058 24.476C4.07925 24.4977 4.07925 24.4977 4.13562 24.5145L4.13575 24.5538C4.18444 24.5883 4.23417 24.6214 4.28488 24.6529L4.33114 24.682C4.37763 24.7112 4.42423 24.7402 4.47095 24.769L4.50949 24.7928C4.88346 25.0226 5.27228 25.228 5.67688 25.3986C5.69307 25.4055 5.70927 25.4124 5.72596 25.4195C5.75634 25.4323 5.78683 25.4448 5.81742 25.4571C5.88461 25.4853 5.9258 25.5076 5.97753 25.5606C6.00844 25.6093 6.00844 25.6093 6.02709 25.6768C6.02855 25.7469 6.02855 25.7469 6.00662 25.8108C5.9699 25.865 5.9699 25.865 5.92206 25.9008C5.78394 25.9653 5.62762 25.9517 5.47823 25.9452C4.79409 25.8813 4.09231 25.5528 3.48678 25.2435C3.46218 25.231 3.43753 25.2185 3.41283 25.2061C3.25644 25.1274 3.10613 25.0409 2.95763 24.9482L2.91096 24.9192C2.8219 24.8628 2.73749 24.8033 2.65513 24.7375L2.62114 24.7159L2.5621 24.7161L2.56198 24.6768L2.50282 24.6376L2.44379 24.6378C2.57787 25.2174 2.80455 25.7226 3.15085 26.2081C3.17699 26.2474 3.17699 26.2474 3.19739 26.2887C3.22605 26.3442 3.27062 26.3807 3.31529 26.4239C3.34331 26.457 3.37088 26.4905 3.39802 26.5244C3.47698 26.6212 3.55964 26.7137 3.64464 26.8053C3.68252 26.8465 3.71963 26.8885 3.75596 26.9311C3.90663 27.1025 4.07059 27.2597 4.24998 27.4006C4.3034 27.4437 4.35333 27.4892 4.40354 27.536C4.60177 27.7165 4.82249 27.8711 5.03969 28.0278L5.08153 28.0581C5.44039 28.3149 5.8301 28.5275 6.225 28.7231L6.26414 28.7426C6.54179 28.8802 6.82633 29.0036 7.11663 29.1122L7.19015 29.1397C7.56743 29.2796 7.95126 29.4006 8.34274 29.4941L8.39847 29.5078C8.92434 29.6366 9.4546 29.7131 9.9935 29.7585C10.0316 29.7617 10.0698 29.7653 10.1079 29.7691C10.2811 29.7862 10.4548 29.79 10.6287 29.7939L10.6794 29.7951C11.0166 29.8024 11.352 29.7966 11.6887 29.7782L11.7536 29.7748C12.5531 29.728 13.3754 29.577 14.1357 29.3274C14.2062 29.3045 14.2772 29.2829 14.3485 29.2627C14.6552 29.175 14.9542 29.06 15.2485 28.9374C15.2759 28.926 15.3034 28.9148 15.3309 28.9035C15.5206 28.8261 15.7038 28.7436 15.8829 28.6442C15.957 28.6032 16.0325 28.5657 16.1084 28.5282C16.7571 28.2047 17.3784 27.8005 17.9382 27.3404C17.9705 27.3149 18.0028 27.2894 18.0352 27.264L18.0774 27.2308C18.1087 27.207 18.1411 27.1847 18.1738 27.1628L18.1737 27.1235L18.2065 27.1086C18.2611 27.0791 18.3069 27.0437 18.3553 27.0049L18.4084 26.963L18.4485 26.926L18.4484 26.8867L18.4803 26.8731C18.5432 26.8381 18.5916 26.7971 18.6447 26.7485L18.6446 26.7092L18.684 26.709L18.6838 26.6697L18.717 26.6558C18.7742 26.6235 18.8135 26.5836 18.8597 26.5369L18.8873 26.5091C18.9067 26.4896 18.9259 26.4701 18.9452 26.4505C18.9741 26.421 19.0032 26.3917 19.0323 26.3625C19.1255 26.2685 19.2163 26.1733 19.3022 26.0725C19.3576 26.0077 19.4161 25.9456 19.4738 25.8829L19.5076 25.8415L19.5075 25.8022L19.5665 25.7823C19.6072 25.7388 19.6072 25.7388 19.6486 25.685L19.6959 25.6253L19.7429 25.5655L19.7837 25.515C19.8787 25.3974 19.9741 25.2785 20.0564 25.1517L20.0562 25.1124L20.0956 25.1123C20.1248 25.076 20.1526 25.0386 20.1789 25.0002L20.2045 24.9634C20.4418 24.6211 20.6754 24.2732 20.87 23.9045C20.8971 23.8539 20.9254 23.8042 20.9542 23.7546C21.0911 23.5173 21.2084 23.2726 21.3158 23.0207C21.3448 22.9529 21.3755 22.886 21.4066 22.8192C21.7571 22.0536 21.993 21.2132 22.1366 20.3854C22.1452 20.336 22.1541 20.2867 22.1632 20.2374C22.1797 20.1437 22.1924 20.0497 22.2042 19.9553L22.2122 19.8951C22.2634 19.4893 22.2663 19.0831 22.2653 18.6747C22.2652 18.6327 22.2651 18.5907 22.2651 18.5488C22.2893 17.9455 22.2893 17.9455 22.1959 17.3606C22.1895 17.3152 22.1837 17.2698 22.1783 17.2243C22.1747 17.1954 22.171 17.1665 22.1673 17.1376C22.1615 17.093 22.1558 17.0484 22.1504 17.0037C22.0928 16.5398 21.9733 16.0758 21.829 15.6314C21.8101 15.5729 21.7922 15.514 21.7742 15.4551C21.7214 15.2867 21.6667 15.12 21.5992 14.9568C21.5673 14.8791 21.5375 14.8005 21.5075 14.7221C21.4235 14.5107 21.3308 14.3035 21.2361 14.0968L21.2162 14.0534C21.1369 13.8804 21.0562 13.7092 20.9639 13.5427C20.9123 13.4495 20.8663 13.3544 20.8214 13.2578C20.772 13.1515 20.7191 13.0511 20.6563 12.9519C20.6227 12.8958 20.5941 12.8382 20.5653 12.7794C20.5045 12.6567 20.4376 12.5384 20.3687 12.4201C20.2942 12.2923 20.2225 12.1648 20.1577 12.0318C20.1322 11.9808 20.1048 11.9313 20.0767 11.8817C20.0134 11.768 19.9581 11.6509 19.9025 11.5333C19.8577 11.4385 19.8114 11.3445 19.7635 11.2512C19.6567 11.0409 19.5648 10.8252 19.4809 10.6049C19.456 10.5411 19.4283 10.479 19.3998 10.4167C19.3335 10.2692 19.2818 10.1216 19.2404 9.96529L19.225 9.90808C19.2148 9.87037 19.2047 9.83265 19.1947 9.79491C19.1826 9.75006 19.1702 9.7053 19.1574 9.66063C19.1086 9.48674 19.0692 9.31252 19.041 9.13416L19.0326 9.08119C18.9176 8.32746 18.9485 7.53885 19.1926 6.8131C19.2134 6.75579 19.2134 6.75579 19.2103 6.6961C19.1252 6.72517 19.0645 6.76879 18.9943 6.82457L18.926 6.87845L18.8911 6.90616C18.859 6.93143 18.8265 6.95638 18.7938 6.98101C18.5507 7.16544 18.3243 7.36868 18.1013 7.57673C18.0708 7.60497 18.0403 7.63308 18.0097 7.66108C17.8174 7.83741 17.6258 8.01687 17.4573 8.2164C17.4188 8.26167 17.3789 8.30558 17.3389 8.3496C17.2465 8.45308 17.1574 8.55949 17.0718 8.66867L17.0469 8.70043C16.6982 9.14757 16.3777 9.63598 16.1314 10.1466C16.0986 10.2137 16.065 10.2803 16.0306 10.3465L16.0123 10.3831C15.9712 10.4618 15.9239 10.5199 15.8579 10.5793C15.8117 10.6026 15.7829 10.6018 15.7314 10.6018L15.6847 10.6021C15.6416 10.5997 15.6416 10.5997 15.5825 10.5802C15.5013 10.4302 15.514 10.2491 15.5157 10.084L15.5161 9.99781C15.5189 9.59785 15.5507 9.20079 15.5943 8.80337C15.6711 8.0876 15.685 7.36695 15.6486 6.64849L15.6459 6.59165C15.6195 6.10372 15.5022 5.61146 15.329 5.15555L15.3003 5.07732C15.2588 4.96344 15.2588 4.96344 15.2023 4.85679C15.1738 4.80789 15.1538 4.76215 15.1333 4.70957C15.0934 4.60843 15.0453 4.51426 14.9922 4.41947L14.9636 4.36831C14.8031 4.08542 14.6114 3.82229 14.4215 3.55862C14.4004 3.52872 14.3797 3.49854 14.3594 3.4681L14.3201 3.46823L14.3089 3.42895C14.2684 3.34514 14.2098 3.27708 14.1422 3.21325L14.1028 3.21337L14.0877 3.17955C14.0086 3.03528 13.8642 2.91558 13.7485 2.79924L13.7146 2.76475C13.6868 2.7371 13.6579 2.71052 13.6289 2.68413L13.5895 2.68426L13.5894 2.64495L13.4909 2.60595L13.4908 2.56663L13.4514 2.56676L13.4513 2.52744C13.3828 2.46425 13.3078 2.4085 13.2343 2.35122L13.1995 2.32383C13.1647 2.29655 13.1299 2.26938 13.095 2.24233L13.0615 2.21613C13.0342 2.19517 13.0061 2.17522 12.9779 2.15546L12.9385 2.15559L12.9384 2.11627C12.8873 2.07175 12.8301 2.0349 12.7744 1.99639L12.7275 1.96299L12.6406 1.90237C12.6017 1.87664 12.6017 1.87664 12.5441 1.88164L12.544 1.84233C12.4262 1.75462 12.2937 1.68522 12.1641 1.61669C12.129 1.5981 12.0941 1.57908 12.0595 1.55962C11.8376 1.43531 11.6023 1.33758 11.3615 1.25637Z" fill="#E5E5E5"/>
<path d="M15.8964 13.3883L15.9615 13.3888C16.2542 13.395 16.5065 13.4818 16.756 13.6327C17.1638 13.8992 17.4362 14.2903 17.6611 14.7139C17.8683 15.1265 18.0254 15.5776 18.1137 16.0309L18.1234 16.0783C18.2243 16.5754 18.2569 17.0742 18.2563 17.5802L18.2563 17.635C18.2559 17.8138 18.2539 17.9914 18.2359 18.1695C18.2308 18.2154 18.2308 18.2154 18.2317 18.2719H18.1924L18.2037 18.3281C18.2173 18.4241 18.2029 18.5144 18.1887 18.6097L18.1804 18.6671C18.051 19.539 17.7739 20.4119 17.2238 21.1132C17.1753 21.1735 17.1753 21.1735 17.1269 21.2337C16.9111 21.4885 16.6334 21.6557 16.3231 21.7709C16.1836 21.8155 16.0508 21.8167 15.905 21.8163L15.8363 21.8173C15.595 21.8174 15.3996 21.7616 15.1874 21.6512C15.0998 21.6002 15.0232 21.5408 14.9457 21.476L14.8867 21.4367V21.3974L14.8536 21.3842C14.6389 21.2614 14.4674 20.9716 14.3443 20.7626C14.139 20.4048 13.9552 20.0231 13.8576 19.6207C13.8454 19.5753 13.8309 19.532 13.8153 19.4876C13.782 19.389 13.7619 19.2894 13.743 19.1872C13.7364 19.1524 13.7298 19.1176 13.7231 19.0828L13.7146 19.0369C13.7073 18.9978 13.7073 18.9978 13.6864 18.9599C13.6803 18.9147 13.6764 18.8695 13.6722 18.8241C13.6688 18.7819 13.6688 18.7819 13.647 18.7436C13.6415 18.7084 13.637 18.6731 13.6329 18.6377L13.6253 18.5719L13.6175 18.5028L13.6097 18.4365C13.5779 18.1572 13.5643 17.8807 13.5646 17.5998L13.5646 17.5506C13.5652 17.1702 13.5779 16.7908 13.6526 16.4168C13.6656 16.3509 13.6759 16.2853 13.6852 16.2189C13.8008 15.4796 14.078 14.7424 14.5325 14.1438C14.5783 14.0881 14.6268 14.0352 14.6765 13.983C14.7109 13.9491 14.7109 13.9491 14.7293 13.9079H14.7686V13.8686C14.8021 13.8384 14.8366 13.8094 14.8719 13.7814C14.8911 13.766 14.9103 13.7506 14.93 13.7348L14.9851 13.6917L15.029 13.6566L15.0638 13.6327H15.1031V13.5934C15.1506 13.5715 15.1981 13.5498 15.2458 13.5283L15.2853 13.5099C15.484 13.421 15.6794 13.3861 15.8964 13.3883ZM9.10166 13.4755L9.15498 13.4933C9.36277 13.5692 9.52723 13.6959 9.68581 13.8463C9.73142 13.8906 9.73142 13.8906 9.79035 13.9276V13.9669H9.8297C9.85485 13.9929 9.85485 13.9929 9.88328 14.0296L9.9151 14.0707L9.94898 14.1156L9.98395 14.1618C10.4892 14.8392 10.7427 15.6572 10.8726 16.483L10.8802 16.5306C11.0505 17.6537 10.9425 18.9657 10.5344 20.023C10.3656 20.4414 10.1611 20.8348 9.86906 21.1811L9.82878 21.2301C9.62742 21.4658 9.37316 21.6362 9.08714 21.7537C8.84068 21.8397 8.54439 21.8368 8.28762 21.8043C8.11754 21.7716 7.95709 21.6903 7.80298 21.6136V21.5743L7.76241 21.562C7.69645 21.5312 7.65096 21.4919 7.59738 21.4434C7.56733 21.4153 7.56733 21.4153 7.5275 21.3974V21.3581H7.48815C7.45985 21.3272 7.43305 21.295 7.40698 21.2622L7.31106 21.1418L7.26924 21.092C7.17013 20.973 7.08599 20.8477 7.0159 20.7094V20.67H6.97655L6.88546 20.4771C6.87132 20.4471 6.85724 20.4171 6.8432 20.387C6.82616 20.3508 6.80888 20.3148 6.79135 20.2788C6.71599 20.1216 6.657 19.9623 6.60292 19.7969C6.58909 19.7547 6.57511 19.7126 6.56099 19.6705C6.49413 19.4692 6.43404 19.2689 6.40592 19.0581L6.38624 19.0385C6.18302 18.0913 6.17887 17.026 6.39362 16.0813L6.40686 16.0224C6.4156 15.9837 6.42442 15.945 6.43331 15.9064C6.44346 15.8618 6.45334 15.8171 6.46294 15.7724C6.55029 15.391 6.69665 15.0082 6.87447 14.6598L6.89304 14.6233C6.90769 14.5945 6.92241 14.5657 6.9372 14.537H6.97655L6.98255 14.504C7.0648 14.2293 7.34036 13.9714 7.5435 13.7761C7.75424 13.5899 7.99475 13.4745 8.26769 13.4102C8.55458 13.3526 8.82502 13.3813 9.10166 13.4755Z" fill="#E5E5E5"/>
<path d="M32.6591 23.9322V6.13332H36.5658L43.7322 18.0655H43.9313L43.7322 14.635V6.13332H47.0666V23.9322H43.5332L35.9686 11.3288H35.7695L35.9686 14.7593V23.9322H32.6591Z" fill="#E5E5E5"/>
<path d="M55.6069 24.3299C54.3296 24.3299 53.1849 24.0399 52.173 23.4598C51.1776 22.8798 50.3897 22.0843 49.8091 21.0734C49.245 20.0625 48.963 18.9107 48.963 17.618C48.963 16.4083 49.245 15.2896 49.8091 14.2621C50.3731 13.2346 51.1445 12.4143 52.1232 11.8011C53.102 11.1714 54.2217 10.8565 55.4825 10.8565C56.8428 10.8565 57.9874 11.1465 58.9164 11.7265C59.8454 12.3066 60.5504 13.0855 61.0315 14.0632C61.5126 15.0245 61.7531 16.0934 61.7531 17.27C61.7531 17.5352 61.7448 17.7672 61.7283 17.9661C61.7117 18.1484 61.6951 18.2809 61.6785 18.3638H50.7795V16.0519H58.6178C58.6012 15.7702 58.5183 15.4802 58.369 15.1819C58.2197 14.8836 58.0123 14.6101 57.7469 14.3616C57.4815 14.113 57.158 13.9141 56.7764 13.7649C56.4115 13.5992 55.9885 13.5164 55.5074 13.5164C54.877 13.5164 54.2964 13.6821 53.7655 14.0135C53.2513 14.345 52.8448 14.809 52.5462 15.4056C52.2476 15.9857 52.0983 16.6817 52.0983 17.4938C52.0983 18.3389 52.2559 19.0598 52.5711 19.6565C52.8863 20.2365 53.3093 20.684 53.8402 20.9988C54.3876 21.2971 54.9931 21.4463 55.6567 21.4463C56.4364 21.4463 57.0916 21.2806 57.6225 20.9491C58.1533 20.6011 58.5681 20.1702 58.8667 19.6565L61.5043 20.9491C60.9071 21.9932 60.1274 22.8218 59.1653 23.435C58.2031 24.0316 57.017 24.3299 55.6069 24.3299Z" fill="#E5E5E5"/>
<path d="M63.4448 23.9322V6.13332H66.7046V23.9322H63.4448ZM65.3609 21.2723V17.2452L71.4324 11.2542H75.4387V11.4531L65.3609 21.2723ZM71.8057 23.9322L67.5257 17.096L69.7901 14.8836L75.6626 23.7333V23.9322H71.8057Z" fill="#E5E5E5"/>
<path d="M82.2566 24.3299C80.9294 24.3299 79.7516 24.0399 78.7231 23.4598C77.7112 22.8632 76.9149 22.0595 76.3343 21.0485C75.7703 20.0211 75.4883 18.8693 75.4883 17.5932C75.4883 16.3171 75.7703 15.1736 76.3343 14.1627C76.9149 13.1352 77.7112 12.3314 78.7231 11.7514C79.7516 11.1548 80.9294 10.8565 82.2566 10.8565C83.5837 10.8565 84.7532 11.1548 85.7651 11.7514C86.7771 12.348 87.565 13.1518 88.1291 14.1627C88.7097 15.1736 89 16.3171 89 17.5932C89 18.8693 88.7097 20.0211 88.1291 21.0485C87.565 22.0595 86.7771 22.8632 85.7651 23.4598C84.7532 24.0399 83.5837 24.3299 82.2566 24.3299ZM82.2566 21.2971C82.887 21.2971 83.4593 21.1563 83.9735 20.8745C84.5044 20.5762 84.9274 20.1536 85.2426 19.6067C85.5744 19.0433 85.7403 18.3721 85.7403 17.5932C85.7403 16.8143 85.5744 16.1514 85.2426 15.6045C84.9274 15.0576 84.5044 14.635 83.9735 14.3367C83.4593 14.0384 82.887 13.8892 82.2566 13.8892C81.6428 13.8892 81.0622 14.0384 80.5147 14.3367C79.9839 14.635 79.5526 15.0576 79.2208 15.6045C78.9056 16.1514 78.748 16.8143 78.748 17.5932C78.748 18.3721 78.9056 19.0433 79.2208 19.6067C79.5526 20.1536 79.9839 20.5762 80.5147 20.8745C81.0622 21.1563 81.6428 21.2971 82.2566 21.2971Z" fill="#E5E5E5"/>
</svg>
