<svg width="2340" height="252" viewBox="0 0 2340 252" fill="none" xmlns="http://www.w3.org/2000/svg">
<path d="M2169.42 1.49122e-05C2194.72 14.0887 2220.31 28.4226 2236.62 45.2983C2252.95 62.174 2259.1 82.2429 2244.28 99.4407C2236.65 108.299 2224.02 115.868 2213.23 123.942C2192.46 139.48 2181.65 168.028 2191.9 189.758C2203.07 213.454 2231.11 233.566 2264.39 224.33C2285.5 218.476 2294.41 205.589 2304.39 189.758C2321.31 162.91 2320.23 135.159 2314.89 102.598C2311.7 83.1408 2291.39 56.5179 2291.39 56.5179L2340 94.0629L2339.95 251.996L1562.26 251.996L2.20305e-05 252L7.40609e-06 84.716C7.40609e-06 84.716 19.3159 142.788 32.5501 176.531C45.7842 210.274 62.2017 226.699 79.5466 216.237C117.544 193.318 52.6116 160.674 54.0486 134.578C56.6934 86.5508 141.042 45.1676 141.042 45.1676C141.042 45.1676 92.5457 122.893 134.043 148.331C158.262 163.177 132.704 226.735 166.041 226.735C183.539 226.735 173.111 185.761 191.539 168.621C212.724 148.918 260.034 127.698 260.034 127.698C260.034 127.698 233.299 164.909 240.035 189.005C245.61 208.944 254.543 231.017 278.033 233.951C301.523 236.886 318.785 235.342 333.529 222.427C348.553 209.265 354.341 190.019 344.975 174.124C335.661 158.229 353.27 132.644 367.974 117.728C367.621 125.533 357.975 147.989 360.974 156.586C363.974 165.183 376.531 180.513 392.472 179.108C410.975 177.502 423.556 139.596 437.062 133.282C437.062 133.282 426.141 187.852 437.062 207.824C449.448 230.477 471.678 234.415 499.496 229.768C527.314 225.12 544.87 208.641 533.713 195.514C528.652 189.552 518.958 184.82 512.812 179.108C493.703 161.254 514.073 139.726 536.754 122.893C529.686 134.713 522.732 147.603 532.476 158.973C544.214 172.708 567.306 168.026 586.079 179.108C597.967 186.124 607.846 202.026 613.962 202.026C620.077 202.026 620.077 158.973 620.077 158.973C620.077 158.973 649.82 178.593 654.376 195.174C656.596 203.257 657.882 208.373 654.376 216.237C649.775 226.553 642.575 229.304 636.705 233.951C630.834 238.599 630.993 245.446 643.254 245.281C655.074 245.122 667.574 239.277 684.573 222.427C702.134 205.019 759.472 196.553 759.472 196.553C759.472 196.553 737.574 210.36 736.069 229.063C734.62 247.42 750.111 247.533 774.1 239.276C838.459 217.124 851.198 187.308 899 170.5C949.812 152.634 985 176.5 985 176.5C985 176.5 923.5 184.5 935.5 214C947.5 243.5 995.982 244.435 1010.98 238.085C1053.67 220.012 1018.64 137.14 1013.98 134.578C1014.07 134.603 1061.42 150.071 1072.98 162.088C1099.03 189.188 1049.26 244.364 1093.47 238.085C1128.3 233.14 1124.5 199.79 1151.97 180.658C1178.8 161.973 1223.87 157.269 1244.96 134.578C1258.38 120.144 1250.54 91.5607 1250.54 91.5607C1250.54 91.5607 1270.52 102.09 1276.98 111.714C1286.11 125.306 1287 143.175 1276.98 154.867C1266.96 166.559 1240.96 169.621 1227.97 185.128C1213.14 202.81 1214.82 218.98 1230.47 234.793C1237.46 241.868 1253.96 244.619 1269.46 240.492C1284.96 236.366 1333.35 208.124 1335.5 191.5C1337.45 176.462 1307.71 154.343 1291.69 144.455L1305.84 145.992C1327.13 148.258 1354.9 158.993 1360.9 162.088C1366.9 165.183 1395.5 186.648 1384.5 214C1378 230.162 1383.57 239.763 1394.52 244.435C1438.02 262.991 1413.02 226.615 1442.88 202.026C1484.46 167.789 1439.53 131.03 1442.88 117.187C1446.27 103.166 1457.88 95.3034 1474.47 85.55C1500.47 71.1334 1520.98 63.8629 1535.99 63.7447C1504.64 82.936 1489.37 98.3313 1490.2 109.924C1490.84 116.991 1494.08 120.802 1499.55 127.138C1509.3 138.426 1541.76 148.472 1543.24 169.621C1544.31 184.908 1517.12 192.565 1516.01 207.64C1515.18 219 1519.94 228.173 1531.51 234.793C1549.51 245.09 1577.18 235.798 1593.01 218.653C1609.12 201.209 1608.38 172.949 1605.08 164.601C1600.64 156.956 1591.19 150.493 1576.71 145.219C1576.23 144.569 1576.85 144.063 1578.57 143.715C1614.65 139.768 1640.6 143.781 1656.45 155.747C1664.85 162.552 1666.18 165.028 1671.06 171.563C1687.55 193.616 1667.45 207.101 1676.5 228.272C1681.5 239.964 1696.98 244.427 1706.5 244.435C1716.03 244.442 1722.04 241.426 1726.48 234.793C1741.6 212.239 1726.48 155.747 1726.48 155.747C1726.48 155.747 1783.48 225.109 1830.07 211.964C1860.07 203.501 1853.1 185.496 1837.15 144.641C1823.85 110.584 1810.62 85.541 1755.5 73.9311C1781.52 69.3376 1812.74 72.5379 1832.61 81.823C1848.17 89.0914 1857.62 112.684 1877.49 105.852C1883.49 103.789 1928.82 18.3463 1928.82 18.3463C1928.82 18.3463 1905.99 78.3418 1905.99 123.896C1905.99 146.18 1905.99 162.592 1919.48 189.758C1926.91 204.709 1937.92 232.583 1978.41 240.492C2018.91 248.401 2035.91 246.682 2038.41 240.492C2040.82 234.519 2012.29 221.976 1995.91 205.073C1975.29 183.795 1965.55 166.445 1963.37 139.674C1960.67 106.643 1977.82 87.4628 2009 61.6591C1990.84 93.6249 2073.24 120.318 2074.52 153.467C2074.96 163.858 2073.99 198.036 2097.4 218.653C2108.33 228.272 2142.4 236.022 2142.4 236.022C2142.4 236.022 2115.43 211.964 2105.4 189.758C2093.55 163.488 2097.13 143.23 2118.75 119.922C2136.22 101.09 2158.05 95.4771 2179.08 84.0633C2220.14 61.7398 2195.71 27.0011 2169.42 1.49122e-05Z" fill="#D9D9D9"/>
<path d="M2169.42 1.49122e-05C2194.72 14.0887 2220.31 28.4226 2236.62 45.2983C2252.95 62.174 2259.1 82.2429 2244.28 99.4407C2236.65 108.299 2224.02 115.868 2213.23 123.942C2192.46 139.48 2181.65 168.028 2191.9 189.758C2203.07 213.454 2231.11 233.566 2264.39 224.33C2285.5 218.476 2294.41 205.589 2304.39 189.758C2321.31 162.91 2320.23 135.159 2314.89 102.598C2311.7 83.1408 2291.39 56.5179 2291.39 56.5179L2340 94.0629L2339.95 251.996L1562.26 251.996L2.20305e-05 252L7.40609e-06 84.716C7.40609e-06 84.716 19.3159 142.788 32.5501 176.531C45.7842 210.274 62.2017 226.699 79.5466 216.237C117.544 193.318 52.6116 160.674 54.0486 134.578C56.6934 86.5508 141.042 45.1676 141.042 45.1676C141.042 45.1676 92.5457 122.893 134.043 148.331C158.262 163.177 132.704 226.735 166.041 226.735C183.539 226.735 173.111 185.761 191.539 168.621C212.724 148.918 260.034 127.698 260.034 127.698C260.034 127.698 233.299 164.909 240.035 189.005C245.61 208.944 254.543 231.017 278.033 233.951C301.523 236.886 318.785 235.342 333.529 222.427C348.553 209.265 354.341 190.019 344.975 174.124C335.661 158.229 353.27 132.644 367.974 117.728C367.621 125.533 357.975 147.989 360.974 156.586C363.974 165.183 376.531 180.513 392.472 179.108C410.975 177.502 423.556 139.596 437.062 133.282C437.062 133.282 426.141 187.852 437.062 207.824C449.448 230.477 471.678 234.415 499.496 229.768C527.314 225.12 544.87 208.641 533.713 195.514C528.652 189.552 518.958 184.82 512.812 179.108C493.703 161.254 514.073 139.726 536.754 122.893C529.686 134.713 522.732 147.603 532.476 158.973C544.214 172.708 567.306 168.026 586.079 179.108C597.967 186.124 607.846 202.026 613.962 202.026C620.077 202.026 620.077 158.973 620.077 158.973C620.077 158.973 649.82 178.593 654.376 195.174C656.596 203.257 657.882 208.373 654.376 216.237C649.775 226.553 642.575 229.304 636.705 233.951C630.834 238.599 630.993 245.446 643.254 245.281C655.074 245.122 667.574 239.277 684.573 222.427C702.134 205.019 759.472 196.553 759.472 196.553C759.472 196.553 737.574 210.36 736.069 229.063C734.62 247.42 750.111 247.533 774.1 239.276C838.459 217.124 851.198 187.308 899 170.5C949.812 152.634 985 176.5 985 176.5C985 176.5 923.5 184.5 935.5 214C947.5 243.5 995.982 244.435 1010.98 238.085C1053.67 220.012 1018.64 137.14 1013.98 134.578C1014.07 134.603 1061.42 150.071 1072.98 162.088C1099.03 189.188 1049.26 244.364 1093.47 238.085C1128.3 233.14 1124.5 199.79 1151.97 180.658C1178.8 161.973 1223.87 157.269 1244.96 134.578C1258.38 120.144 1250.54 91.5607 1250.54 91.5607C1250.54 91.5607 1270.52 102.09 1276.98 111.714C1286.11 125.306 1287 143.175 1276.98 154.867C1266.96 166.559 1240.96 169.621 1227.97 185.128C1213.14 202.81 1214.82 218.98 1230.47 234.793C1237.46 241.868 1253.96 244.619 1269.46 240.492C1284.96 236.366 1333.35 208.124 1335.5 191.5C1337.45 176.462 1307.71 154.343 1291.69 144.455L1305.84 145.992C1327.13 148.258 1354.9 158.993 1360.9 162.088C1366.9 165.183 1395.5 186.648 1384.5 214C1378 230.162 1383.57 239.763 1394.52 244.435C1438.02 262.991 1413.02 226.615 1442.88 202.026C1484.46 167.789 1439.53 131.03 1442.88 117.187C1446.27 103.166 1457.88 95.3034 1474.47 85.55C1500.47 71.1334 1520.98 63.8629 1535.99 63.7447C1504.64 82.936 1489.37 98.3313 1490.2 109.924C1490.84 116.991 1494.08 120.802 1499.55 127.138C1509.3 138.426 1541.76 148.472 1543.24 169.621C1544.31 184.908 1517.12 192.565 1516.01 207.64C1515.18 219 1519.94 228.173 1531.51 234.793C1549.51 245.09 1577.18 235.798 1593.01 218.653C1609.12 201.209 1608.38 172.949 1605.08 164.601C1600.64 156.956 1591.19 150.493 1576.71 145.219C1576.23 144.569 1576.85 144.063 1578.57 143.715C1614.65 139.768 1640.6 143.781 1656.45 155.747C1664.85 162.552 1666.18 165.028 1671.06 171.563C1687.55 193.616 1667.45 207.101 1676.5 228.272C1681.5 239.964 1696.98 244.427 1706.5 244.435C1716.03 244.442 1722.04 241.426 1726.48 234.793C1741.6 212.239 1726.48 155.747 1726.48 155.747C1726.48 155.747 1783.48 225.109 1830.07 211.964C1860.07 203.501 1853.1 185.496 1837.15 144.641C1823.85 110.584 1810.62 85.541 1755.5 73.9311C1781.52 69.3376 1812.74 72.5379 1832.61 81.823C1848.17 89.0914 1857.62 112.684 1877.49 105.852C1883.49 103.789 1928.82 18.3463 1928.82 18.3463C1928.82 18.3463 1905.99 78.3418 1905.99 123.896C1905.99 146.18 1905.99 162.592 1919.48 189.758C1926.91 204.709 1937.92 232.583 1978.41 240.492C2018.91 248.401 2035.91 246.682 2038.41 240.492C2040.82 234.519 2012.29 221.976 1995.91 205.073C1975.29 183.795 1965.55 166.445 1963.37 139.674C1960.67 106.643 1977.82 87.4628 2009 61.6591C1990.84 93.6249 2073.24 120.318 2074.52 153.467C2074.96 163.858 2073.99 198.036 2097.4 218.653C2108.33 228.272 2142.4 236.022 2142.4 236.022C2142.4 236.022 2115.43 211.964 2105.4 189.758C2093.55 163.488 2097.13 143.23 2118.75 119.922C2136.22 101.09 2158.05 95.4771 2179.08 84.0633C2220.14 61.7398 2195.71 27.0011 2169.42 1.49122e-05Z" fill="#0085CC"/>
</svg>
