<svg width="1920" height="617" viewBox="0 0 1920 617" fill="none" xmlns="http://www.w3.org/2000/svg">
<path d="M1941.07 1.59051e-05C1966.36 20.4851 1991.96 41.3266 2008.27 65.8639C2024.6 90.4012 2030.75 119.582 2015.93 144.587C2008.3 157.467 1995.67 168.473 1984.88 180.212C1964.11 202.805 1949.91 230.824 1961.26 256.522C1972.6 282.22 2018.13 300.821 2051.41 287.392C2072.51 278.88 2082.26 260.91 2084.12 243.907C2085.97 226.904 2081.65 209.83 2082.17 192.786C2082.37 186.412 2083.39 179.804 2088.15 174.368C2095.2 166.284 2109.24 162.588 2123 162.466L2123 1100L1345.25 1100L-203 1100L-203 190.608C-191.059 190.715 -178.878 193.925 -172.756 200.948C-168.629 205.671 -167.745 211.412 -167.569 216.948C-167.114 231.755 -170.863 246.588 -169.26 261.359C-167.644 276.129 -159.187 291.741 -140.872 299.135C-111.992 310.802 -72.4831 294.642 -62.6377 272.317C-52.7922 249.993 -65.112 225.652 -83.1369 206.025C-92.5029 195.827 -103.458 186.266 -110.085 175.077C-122.947 153.354 -117.609 128.004 -103.434 106.688C-89.2837 85.372 -67.0684 67.2664 -45.1179 49.4705C-67.9268 83.5764 -89.1321 127.456 -53.4988 155.653C-35.2466 170.07 -5.2307 176.669 7.90944 193.624C27.1841 218.487 -0.647928 248.127 -2.06174 276.395C-2.31418 281.525 -1.45652 287.018 3.27688 290.901C15.4197 300.869 40.4256 290.883 44.9065 278.155C49.3875 265.401 42.6089 252.116 42.9876 238.99C44.0984 197.118 115.617 163.402 99.8518 123.025C126.915 155.618 147.641 191.608 151.264 229.261C154.849 266.869 139.866 306.388 103.197 334.002C84.6171 347.995 61.0762 358.67 44.4522 373.83C20.0528 396.058 13.3501 427.271 27.399 453.55C36.1463 469.974 53.2622 484.71 76.3866 491.379C99.549 498.031 128.657 495.298 145.849 482.57C169.377 465.119 164.164 437.222 154.798 414.11C145.483 390.999 133.693 365.587 148.398 343.899C148.045 355.247 147.792 367.02 154.419 377.377C161.059 387.717 176.622 396.217 192.564 394.174C211.069 391.839 220.587 377.767 234.093 368.586C251.335 356.857 278.436 352.815 301.017 358.617C253.178 373.282 222.708 411.713 230.155 447.933C234.093 467.047 247.359 486.311 239.621 504.841C233.865 518.604 217.621 528.82 207.245 541.203C192.363 559.007 190.773 582.508 206.185 600.101C221.546 617.675 254.605 627.396 282.412 620.674C310.232 613.916 327.79 589.956 316.632 570.869C311.57 562.201 301.876 555.319 295.729 547.014C276.618 521.054 296.991 489.752 319.673 465.278C312.605 482.463 305.65 501.206 315.395 517.737C327.134 537.709 358.904 547.447 380.009 563.191C386.83 568.277 392.491 574.085 396.886 580.337C398.053 579.183 399.26 577.96 400.506 576.668C412.438 564.043 416.963 551.609 414.094 539.367C426.99 545.937 434.719 556.27 437.303 570.375C437.874 576.305 436.922 583.497 434.445 591.958L419.631 626.757C418.202 634.225 420.381 639.717 426.18 643.231C431.703 645.605 438.8 645.888 447.476 644.082C455.025 640.522 463.182 635.579 471.944 629.25C477.16 624.905 481.054 620.512 483.627 616.09C484.267 615.654 486.385 611.702 489.972 604.236C490.44 602.444 490.928 600.621 491.438 598.767L491.841 597.557C497.492 580.597 509.84 543.534 530.425 530.195C559.077 513.827 587.193 509.443 614.797 517.035C583.871 530.3 570.586 545.058 569.3 570.375C568.062 595.224 561.116 603.959 586.362 604.236C604.665 603.338 612.041 606.03 629.583 598.767C640.024 594.444 648.438 601.233 657.375 588.946C662.895 581.358 665.726 573.509 669.232 563.791L669.318 563.554C677.924 539.699 679.301 523.507 692.567 500.902C717.218 461.939 750.037 439.325 791.049 433.07C791.74 433.395 791.561 434.283 790.502 435.734C783.404 442.582 777.926 448.722 774.092 454.175C770.877 458.721 767.982 463.677 765.398 469.035C759.123 482.089 756.3 495.125 756.943 508.132C757.811 517.761 760.908 526.398 766.228 534.042C776.531 542.835 789.308 547.343 804.567 547.563C834.207 547.095 851.56 537.534 871.208 514.424C885.799 497.261 892.344 483.766 895.929 460.391C899.815 435.049 891.237 399.111 886.581 395.386C886.671 395.423 915.743 407.096 925.891 420.606C932.045 428.798 938.624 436.113 941.767 444.328C941.979 444.206 942.191 444.085 942.406 443.966C946.419 441.492 950.991 439.095 956.135 436.765C973.522 431.026 988.038 425.257 999.696 419.461C1013.5 412.613 1024.48 405.785 1032.64 398.967C1048.6 382.664 1056.87 366.407 1057.42 350.214C1057.33 349.746 1057.23 349.284 1057.13 348.826C1069.17 355.173 1079.08 363.759 1083.57 378.129C1084.5 380.451 1085.04 382.697 1085.2 384.87C1085.94 389.061 1086.27 393.678 1086.16 398.781C1085.96 405.084 1085.75 423.059 1079.25 436.765C1070.15 455.966 1048.11 460.393 1043.98 481.411C1040.3 500.168 1045.41 526.076 1049.56 530.106C1058.61 540.948 1066.09 536.574 1080.55 528.13L1081.07 527.823C1100.62 516.408 1108.88 485.395 1114.92 473.69C1119.85 456.098 1114.3 440.113 1098.29 425.735L1112.43 427.97C1133.72 431.265 1147.97 441.817 1155.14 459.618C1161.82 479.616 1167.66 535.196 1161.83 572.822C1162.59 582.276 1165.6 589.592 1170.87 594.787C1180.92 603.401 1192.28 606.55 1204.93 604.236C1206.23 603.538 1207.64 602.742 1209.25 601.815C1225.5 592.398 1231.83 583.294 1239.09 568.304C1245 556.091 1247.42 548.283 1246.08 535.224C1243.98 514.79 1222.52 477.109 1225.86 456.981C1229.25 436.593 1240.86 425.162 1257.45 410.98C1283.46 390.018 1303.96 379.447 1318.98 379.275C1287.63 407.179 1272.36 429.564 1273.18 446.42C1273.82 456.695 1277.07 462.237 1282.54 471.45C1292.29 487.863 1324.75 502.469 1326.23 533.22C1327.31 555.448 1305.07 571.535 1307.51 586.21C1308.65 593 1310.31 599.141 1318.71 601.28C1346.49 604.298 1363.87 575.566 1379.7 550.638C1395.81 525.274 1395.08 484.183 1391.78 472.045C1387.34 460.93 1377.88 451.533 1363.4 443.864C1362.93 442.919 1363.55 442.183 1365.26 441.677C1401.34 435.937 1427.3 441.773 1443.15 459.172C1451.55 469.066 1452.88 472.666 1457.76 482.168C1474.25 514.233 1452.42 544.998 1473.27 574.104C1477.5 580.015 1479.46 585.507 1485.39 588.124C1502.69 592.918 1508.74 583.75 1513.19 574.104C1528.31 541.312 1485.39 450.038 1485.39 450.038L1531.2 501.508C1531.2 501.508 1552.14 519.013 1566.33 519.374C1591.33 520.008 1598.66 487.786 1607.53 464.695C1612.18 452.6 1615.45 443.576 1617.62 433.02C1626.2 391.327 1591.09 347.089 1535.97 330.208C1561.99 323.529 1593.22 328.182 1613.09 341.683C1628.65 352.251 1639.62 368.45 1660.94 371.137C1679.31 373.489 1697.24 363.705 1704.9 351.803C1712.53 339.88 1712.24 326.329 1711.83 313.266C1728.78 338.231 1715.19 367.482 1704.46 394.086C1693.67 420.69 1694.42 455.381 1715.34 482.168C1737.51 510.545 1774.36 516.343 1801.05 508.686C1827.7 501.01 1847.42 484.047 1857.5 465.14C1873.69 434.891 1865.97 398.961 1837.85 373.375C1818.7 355.924 1801.99 344.241 1785.61 319.664C1764.99 288.726 1748.53 267.71 1746.34 228.785C1743.64 180.757 1760.79 152.869 1791.98 115.351C1773.81 161.829 1856.22 200.641 1857.5 248.84C1857.94 263.949 1856.61 272.544 1866.78 277.913C1873.24 281.329 1879.45 282.4 1885.3 277.913C1890.67 273.795 1891.74 267.121 1891.45 261.216C1889.82 228.676 1857.75 194.558 1879.96 165.937C1895.1 146.42 1929.69 138.824 1950.72 122.228C1991.79 89.7698 1967.35 39.2597 1941.07 1.59051e-05Z" fill="#D9D9D9"/>
<path d="M1941.07 1.59051e-05C1966.36 20.4851 1991.96 41.3266 2008.27 65.8639C2024.6 90.4012 2030.75 119.582 2015.93 144.587C2008.3 157.467 1995.67 168.473 1984.88 180.212C1964.11 202.805 1949.91 230.824 1961.26 256.522C1972.6 282.22 2018.13 300.821 2051.41 287.392C2072.51 278.88 2082.26 260.91 2084.12 243.907C2085.97 226.904 2081.65 209.83 2082.17 192.786C2082.37 186.412 2083.39 179.804 2088.15 174.368C2095.2 166.284 2109.24 162.588 2123 162.466L2123 1100L1345.25 1100L-203 1100L-203 190.608C-191.059 190.715 -178.878 193.925 -172.756 200.948C-168.629 205.671 -167.745 211.412 -167.569 216.948C-167.114 231.755 -170.863 246.588 -169.26 261.359C-167.644 276.129 -159.187 291.741 -140.872 299.135C-111.992 310.802 -72.4831 294.642 -62.6377 272.317C-52.7922 249.993 -65.112 225.652 -83.1369 206.025C-92.5029 195.827 -103.458 186.266 -110.085 175.077C-122.947 153.354 -117.609 128.004 -103.434 106.688C-89.2837 85.372 -67.0684 67.2664 -45.1179 49.4705C-67.9268 83.5764 -89.1321 127.456 -53.4988 155.653C-35.2466 170.07 -5.2307 176.669 7.90944 193.624C27.1841 218.487 -0.647928 248.127 -2.06174 276.395C-2.31418 281.525 -1.45652 287.018 3.27688 290.901C15.4197 300.869 40.4256 290.883 44.9065 278.155C49.3875 265.401 42.6089 252.116 42.9876 238.99C44.0984 197.118 115.617 163.402 99.8518 123.025C126.915 155.618 147.641 191.608 151.264 229.261C154.849 266.869 139.866 306.388 103.197 334.002C84.6171 347.995 61.0762 358.67 44.4522 373.83C20.0528 396.058 13.3501 427.271 27.399 453.55C36.1463 469.974 53.2622 484.71 76.3866 491.379C99.549 498.031 128.657 495.298 145.849 482.57C169.377 465.119 164.164 437.222 154.798 414.11C145.483 390.999 133.693 365.587 148.398 343.899C148.045 355.247 147.792 367.02 154.419 377.377C161.059 387.717 176.622 396.217 192.564 394.174C211.069 391.839 220.587 377.767 234.093 368.586C251.335 356.857 278.436 352.815 301.017 358.617C253.178 373.282 222.708 411.713 230.155 447.933C234.093 467.047 247.359 486.311 239.621 504.841C233.865 518.604 217.621 528.82 207.245 541.203C192.363 559.007 190.773 582.508 206.185 600.101C221.546 617.675 254.605 627.396 282.412 620.674C310.232 613.916 327.79 589.956 316.632 570.869C311.57 562.201 301.876 555.319 295.729 547.014C276.618 521.054 296.991 489.752 319.673 465.278C312.605 482.463 305.65 501.206 315.395 517.737C327.134 537.709 358.904 547.447 380.009 563.191C386.83 568.277 392.491 574.085 396.886 580.337C398.053 579.183 399.26 577.96 400.506 576.668C412.438 564.043 416.963 551.609 414.094 539.367C426.99 545.937 434.719 556.27 437.303 570.375C437.874 576.305 436.922 583.497 434.445 591.958L419.631 626.757C418.202 634.225 420.381 639.717 426.18 643.231C431.703 645.605 438.8 645.888 447.476 644.082C455.025 640.522 463.182 635.579 471.944 629.25C477.16 624.905 481.054 620.512 483.627 616.09C484.267 615.654 486.385 611.702 489.972 604.236C490.44 602.444 490.928 600.621 491.438 598.767L491.841 597.557C497.492 580.597 509.84 543.534 530.425 530.195C559.077 513.827 587.193 509.443 614.797 517.035C583.871 530.3 570.586 545.058 569.3 570.375C568.062 595.224 561.116 603.959 586.362 604.236C604.665 603.338 612.041 606.03 629.583 598.767C640.024 594.444 648.438 601.233 657.375 588.946C662.895 581.358 665.726 573.509 669.232 563.791L669.318 563.554C677.924 539.699 679.301 523.507 692.567 500.902C717.218 461.939 750.037 439.325 791.049 433.07C791.74 433.395 791.561 434.283 790.502 435.734C783.404 442.582 777.926 448.722 774.092 454.175C770.877 458.721 767.982 463.677 765.398 469.035C759.123 482.089 756.3 495.125 756.943 508.132C757.811 517.761 760.908 526.398 766.228 534.042C776.531 542.835 789.308 547.343 804.567 547.563C834.207 547.095 851.56 537.534 871.208 514.424C885.799 497.261 892.344 483.766 895.929 460.391C899.815 435.049 891.237 399.111 886.581 395.386C886.671 395.423 915.743 407.096 925.891 420.606C932.045 428.798 938.624 436.113 941.767 444.328C941.979 444.206 942.191 444.085 942.406 443.966C946.419 441.492 950.991 439.095 956.135 436.765C973.522 431.026 988.038 425.257 999.696 419.461C1013.5 412.613 1024.48 405.785 1032.64 398.967C1048.6 382.664 1056.87 366.407 1057.42 350.214C1057.33 349.746 1057.23 349.284 1057.13 348.826C1069.17 355.173 1079.08 363.759 1083.57 378.129C1084.5 380.451 1085.04 382.697 1085.2 384.87C1085.94 389.061 1086.27 393.678 1086.16 398.781C1085.96 405.084 1085.75 423.059 1079.25 436.765C1070.15 455.966 1048.11 460.393 1043.98 481.411C1040.3 500.168 1045.41 526.076 1049.56 530.106C1058.61 540.948 1066.09 536.574 1080.55 528.13L1081.07 527.823C1100.62 516.408 1108.88 485.395 1114.92 473.69C1119.85 456.098 1114.3 440.113 1098.29 425.735L1112.43 427.97C1133.72 431.265 1147.97 441.817 1155.14 459.618C1161.82 479.616 1167.66 535.196 1161.83 572.822C1162.59 582.276 1165.6 589.592 1170.87 594.787C1180.92 603.401 1192.28 606.55 1204.93 604.236C1206.23 603.538 1207.64 602.742 1209.25 601.815C1225.5 592.398 1231.83 583.294 1239.09 568.304C1245 556.091 1247.42 548.283 1246.08 535.224C1243.98 514.79 1222.52 477.109 1225.86 456.981C1229.25 436.593 1240.86 425.162 1257.45 410.98C1283.46 390.018 1303.96 379.447 1318.98 379.275C1287.63 407.179 1272.36 429.564 1273.18 446.42C1273.82 456.695 1277.07 462.237 1282.54 471.45C1292.29 487.863 1324.75 502.469 1326.23 533.22C1327.31 555.448 1305.07 571.535 1307.51 586.21C1308.65 593 1310.31 599.141 1318.71 601.28C1346.49 604.298 1363.87 575.566 1379.7 550.638C1395.81 525.274 1395.08 484.183 1391.78 472.045C1387.34 460.93 1377.88 451.533 1363.4 443.864C1362.93 442.919 1363.55 442.183 1365.26 441.677C1401.34 435.937 1427.3 441.773 1443.15 459.172C1451.55 469.066 1452.88 472.666 1457.76 482.168C1474.25 514.233 1452.42 544.998 1473.27 574.104C1477.5 580.015 1479.46 585.507 1485.39 588.124C1502.69 592.918 1508.74 583.75 1513.19 574.104C1528.31 541.312 1485.39 450.038 1485.39 450.038L1531.2 501.508C1531.2 501.508 1552.14 519.013 1566.33 519.374C1591.33 520.008 1598.66 487.786 1607.53 464.695C1612.18 452.6 1615.45 443.576 1617.62 433.02C1626.2 391.327 1591.09 347.089 1535.97 330.208C1561.99 323.529 1593.22 328.182 1613.09 341.683C1628.65 352.251 1639.62 368.45 1660.94 371.137C1679.31 373.489 1697.24 363.705 1704.9 351.803C1712.53 339.88 1712.24 326.329 1711.83 313.266C1728.78 338.231 1715.19 367.482 1704.46 394.086C1693.67 420.69 1694.42 455.381 1715.34 482.168C1737.51 510.545 1774.36 516.343 1801.05 508.686C1827.7 501.01 1847.42 484.047 1857.5 465.14C1873.69 434.891 1865.97 398.961 1837.85 373.375C1818.7 355.924 1801.99 344.241 1785.61 319.664C1764.99 288.726 1748.53 267.71 1746.34 228.785C1743.64 180.757 1760.79 152.869 1791.98 115.351C1773.81 161.829 1856.22 200.641 1857.5 248.84C1857.94 263.949 1856.61 272.544 1866.78 277.913C1873.24 281.329 1879.45 282.4 1885.3 277.913C1890.67 273.795 1891.74 267.121 1891.45 261.216C1889.82 228.676 1857.75 194.558 1879.96 165.937C1895.1 146.42 1929.69 138.824 1950.72 122.228C1991.79 89.7698 1967.35 39.2597 1941.07 1.59051e-05Z" fill="url(#paint0_linear_3647_3230)"/>
<defs>
<linearGradient id="paint0_linear_3647_3230" x1="990.152" y1="0.000100099" x2="998.997" y2="881.698" gradientUnits="userSpaceOnUse">
<stop offset="0.201923" stop-color="#279EDD"/>
<stop offset="1" stop-color="#000D1C"/>
</linearGradient>
</defs>
</svg>
