<svg xmlns="http://www.w3.org/2000/svg" width="1800" height="1800"><path fill="#0F2463" d="M918.727 86.668C931.873 93.739 944.767 101.44 957 110l1.834 1.274c20.9 14.53 41.385 29.505 60.166 46.726a800 800 0 0 0 4.125 3.625l1.941 1.7a365 365 0 0 0 3.961 3.382c4.07 3.46 7.618 7.061 11.067 11.137 2.157 2.44 4.449 4.694 6.781 6.969 5.094 5.047 10 10.305 14.125 16.187l.496 2.195L1062 205l1.844.898c2.41 1.232 3.492 2.413 5.152 4.532l1.673 2.128 1.768 2.317 1.861 2.42c6.75 8.905 12.843 18.196 18.702 27.705.48.78.961 1.56 1.457 2.362 7.79 12.762 14.395 26.018 20.543 39.638l1.31 2.894c20.046 44.856 25.308 90.604 27.69 139.106l2 1 1-3c3.871-4.246 8.273-7.954 12.559-11.773a129 129 0 0 0 5.941-5.79L1168 407h2v-2c1.528-1.396 3.127-2.716 4.75-4l3.055-2.441 1.604-1.278c2.523-2.032 4.99-4.13 7.466-6.219 6.238-5.205 12.632-10.18 19.125-15.062l1.61-1.215c6.65-4.998 6.65-4.998 9.39-6.785h2v-2a151 151 0 0 1 7.375-4.687c4.685-2.856 9.308-5.71 13.75-8.938 9.908-7.087 21.647-14.884 33.875-16.375 9.196-.626 18.464-.907 27 3 7.054 3.478 13.115 7.788 18 14 6.473 10.039 9.71 21.48 10.383 33.328.708 22.078-4.834 42.91-10.084 64.16-6.132 24.45-6.132 24.45-7.299 49.512l.063 3.68c1.475 46.558 20.308 91.276 42.937 131.32l1.301 2.305q3.145 5.566 6.3 11.125c5.32 9.39 10.53 18.838 15.732 28.294a1590 1590 0 0 0 10.292 18.463c14.322 25.33 27.758 51.127 39.375 77.813l.981 2.223c6.462 14.662 11.955 29.69 17.31 44.783q1.044 2.932 2.097 5.861a548.4 548.4 0 0 1 24.362 93.383l.392 2.278c2.403 14.2 2.403 14.2.858 21.472h2c6.739 83.608 2.915 167.236-30 265l-.689 1.95c-7.544 21.304-15.626 42.468-26.038 62.551-1.571 3.085-3.092 6.194-4.613 9.304-16.018 32.679-34.838 63.79-56.238 93.237q-1.504 2.07-3 4.146c-8.397 11.631-17.137 22.877-26.422 33.812l-1.684 1.984c-7.099 8.334-14.401 16.457-21.872 24.458a506 506 0 0 0-4.124 4.519c-6.49 7.17-13.24 14.065-20.07 20.914l-2.69 2.703c-4.476 4.467-9.01 8.796-13.809 12.916-2.407 2.07-4.731 4.227-7.063 6.381-4.492 4.096-9.104 7.984-13.836 11.797a316 316 0 0 0-7.284 6.161c-8.791 7.593-18.136 14.398-27.568 21.167l-2.451 1.763C1122.189 1588.23 1021.82 1629.675 912 1642c-16.938 1.622-33.846 2.38-50.856 2.633-3.632.055-7.264.125-10.896.197l-7.057.12-3.226.062c-5.912.08-11.681-.153-17.561-.785-3.59-.339-7.11-.284-10.716-.227-7.032.11-7.032.11-10.556-.481-3.006-.498-5.896-.733-8.937-.878-18.644-1.01-36.82-3.379-55.195-6.641l-1.994-.352c-58.683-10.402-117.907-27.85-170.286-56.775-1.885-1.01-1.885-1.01-4.72-1.873v-2l-1.617-.445c-4.32-1.3-8.136-2.854-11.988-5.215l-2.63-1.61c-5.757-3.601-11.466-7.275-17.17-10.959l-2.841-1.822-2.553-1.646c-2.25-1.437-2.25-1.437-5.201-2.303v-2l-2.228-.812c-2.703-1.158-4.769-2.451-7.127-4.192l-2.385-1.744-2.447-1.814q-2.427-1.786-4.856-3.567l-2.157-1.596c-1.775-1.326-1.775-1.326-3.8-2.275v-2l-1.707-.781c-2.551-1.356-4.703-2.943-6.98-4.719l-2.387-1.844C478 1522 478 1522 477 1520l-2.562-1.5L472 1517v-2l-2.187-.73c-3.202-1.445-5.245-3.195-7.813-5.582l-2.648-2.45c-2.493-2.372-4.919-4.805-7.352-7.238a537 537 0 0 0-3.625-3.125c-7.49-6.499-14.449-13.604-20.871-21.156-1.415-1.618-2.89-3.108-4.442-4.594L421 1468v-2h-2c-1.55-1.758-1.55-1.758-3.312-4.125-2.14-2.843-4.292-5.626-6.625-8.312L407 1451v-2h-2c-1.218-1.402-1.218-1.402-2.574-3.367l-1.526-2.188-1.587-2.32-1.53-2.203q-1.574-2.269-3.138-4.545a436 436 0 0 0-3.374-4.805c-4.2-5.905-8.041-11.948-11.709-18.197l-1.705-2.898c-4.66-7.996-8.889-16.12-12.857-24.477l-1.57-3.133c-13.425-27.481-21.482-62.235-19.43-92.867.734-9.612 1.913-18.892 4.512-28.203.568-3.256.287-5.6-.512-8.797a149 149 0 0 0-4-6v-2h-2l-.996-1.844c-2.621-4.83-5.277-9.628-8.036-14.381-11.228-19.51-21.186-40.278-27.495-61.935a69 69 0 0 0-3.036-8.442c-1.641-3.88-2.56-7.667-3.437-11.773-.944-4.367-1.952-8.596-3.465-12.805-2.075-6.043-3.029-12.286-4.098-18.57l-.63-3.594c-.618-3.55-1.214-7.102-1.807-10.656l-.527-2.979c-3.052-18.142-3.808-36.434-3.734-54.8a1273 1273 0 0 0-.012-9.461c-.016-19.86 1.39-39.486 4.71-59.072l.62-3.874c1.088-6.598 2.412-13.011 4.262-19.438.906-3.162 1.626-6.36 2.368-9.563 4.997-20.359 12.82-39.698 21.313-58.813l1.142-2.585c3.801-8.543 7.958-16.547 12.99-24.438 1.743-2.778 3.326-5.585 4.868-8.477 2.158-4.03 4.462-7.93 6.875-11.812 12.828-20.682 24.25-40.176 25.215-65 .08-4.727.019-9.453-.054-14.181-.272-18.92.423-37.651 1.964-56.507l.227-2.783A263 263 0 0 1 373 680l.333-2.385C379.683 633.568 393.927 589.643 414 550l1.182-2.352c7.83-15.488 16.69-30.282 26.47-44.616 2.662-3.913 5.044-7.902 7.348-12.032h2l.938-2.375C453 486 453 486 454 484h2l.803-2.234c1.187-2.744 2.489-4.69 4.35-7.016l1.853-2.344 1.932-2.406c4.723-5.831 4.723-5.831 8.878-12.062L475 456h2l.684-1.652c1.707-3.046 3.986-5.401 6.378-7.91 3.664-3.908 7.16-7.87 10.5-12.063 3.748-4.66 7.803-8.841 12.075-13.02 3.939-3.926 7.726-8.028 10.93-12.582L519 407h2v-2h2v-2h2l.752-1.739c1.44-2.61 3.1-4.347 5.22-6.444l2.479-2.469 2.686-2.645 4.185-4.162q2.935-2.912 5.877-5.819 5.115-5.06 10.22-10.132 2.713-2.695 5.436-5.383c4.416-4.381 8.682-8.822 12.727-13.55 1.893-2.212 3.877-4.334 5.856-6.47 4.047-4.456 7.531-9.17 10.933-14.132L593 328h2l.813-1.687c1.296-2.525 2.612-4.95 4.187-7.313h2l.82-1.793c2.55-4.77 6.522-8.056 10.922-11.11 7.71-4.736 14.775-7.67 23.824-8.374 10.323-.265 19.996 1.117 29.496 5.277 7.687 4.219 14.325 9.994 19.114 17.336 9.542 18.185 10.556 36.499 9.914 56.594-.546 12.59-1.445 25.609-3.604 38.024-.566 3.546-.806 7.047-1.021 10.632l-.13 2.127q-.203 3.33-.398 6.662l-.275 4.543q-.335 5.541-.662 11.082l2.375-2 2.625-2h2v-2c1.436-1.419 1.436-1.419 3.441-3.078 4.719-4.016 9.12-8.29 13.496-12.672l2.4-2.402C721.965 420.16 727.126 414.349 732 408q2.03-2.502 4.063-5c4.15-5.215 8.1-10.55 11.937-16l2.305-3.258c13.851-19.963 25.26-42.154 32.863-65.243.649-1.949 1.318-3.89 1.994-5.83 3.043-8.832 5.441-17.648 7.4-26.794l.448-2.081c9.919-46.384 15.09-98.471 7.353-145.55-2.137-13.223-1.71-24.518 2.637-37.244 3.429-8.396 9.531-15.324 16.488-21.047 8.552-6.224 17.768-10.355 28.324-11.64 25.426-1.884 48.662 6.735 70.915 18.355M865 132c-1.071 3.81-.796 6.882-.273 10.767.458 3.745.642 7.498.824 11.264l.127 2.608c.474 10.617.52 21.235.51 31.861l-.001 3.183c-.02 16.529-.528 32.862-2.187 49.317l-.309 3.346C858.121 304.616 839.405 363.867 805 414c-3.183 4.456-6.56 8.74-10 13l-2.012 2.559a516 516 0 0 1-23.677 27.895 698 698 0 0 0-4.39 4.88c-5.155 5.788-10.468 11.373-15.944 16.857l-2.506 2.516q-2.602 2.61-5.208 5.216a3515 3515 0 0 0-7.872 7.911c-8.163 8.19-16.27 16.048-25.391 23.166-1.987 1.746-3.894 3.551-5.812 5.375a233 233 0 0 1-13.5 11.625l-1.705 1.384c-4.581 3.6-9.157 6.178-15.01 7.085-4.873.052-9.015-.003-13.348-2.407-6.233-4.664-9.316-11.111-12.33-18.103-4.543-10.911-7.98-21.88-10.357-33.459l-.456-2.204c-.539-2.759-1.013-5.525-1.482-8.296l-.373-2.087c-2.48-14.096-3.04-27.868-2.908-42.165.031-3.47.04-6.94.047-10.41q.014-3.363.03-6.725l.014-3.09c.054-5.524.342-10.945.969-16.435.273-2.579.32-5.121.284-7.713l-.028-2.54L632 386c-4.103 1.377-6.668 3.236-9.812 6.188l-2.665 2.468L617 397a515 515 0 0 1-3.687 3.188c-11.998 10.484-23.34 21.677-34.586 32.955a3660 3660 0 0 1-6.758 6.752l-4.375 4.378-2.002 1.996a227 227 0 0 0-11.078 11.98c-2.077 2.403-4.234 4.73-6.389 7.063-4.447 4.881-8.65 9.912-12.792 15.05a594 594 0 0 1-4.587 5.548c-19.357 23.233-35.999 47.831-51.358 73.868C478 562 478 562 476.443 563.998c-1.558 2.161-2.414 4.156-3.338 6.65-1.65 4.28-3.52 8.368-5.555 12.476-24.596 49.702-34.108 104.909-35.05 159.938-.618 34.972-4.27 64.47-20.5 95.938l-1.773 3.496c-4.283 8.185-9.07 16.094-13.744 24.06-6.058 10.358-11.847 20.85-17.483 31.444l-1.832 3.441c-13.321 25.835-26.684 61.025-26.23 90.496l.027 2.34L351 996h-2c-.915 13.127-1.157 26.202-1.13 39.36q.005 4.803-.007 9.607c-.005 15.263.12 30.412 2.735 45.494C351 1093 351 1093 351 1096h2l.043 2.105c.755 16.103 5.497 31.816 10.957 46.895l.79 2.225c6.102 17.209 13.269 33.463 21.985 49.511a561 561 0 0 1 3.303 6.217c9.324 17.475 21.202 33.51 34.031 48.55 1.874 2.208 3.44 4.327 5.051 6.759 1.697 2.525 3.172 4.112 5.527 5.988 3.233 2.711 6.03 5.578 8.813 8.75a98 98 0 0 0 10.773 10.527C456 1285 456 1285 457.602 1286.691L459 1288h2v2c1.57 1.438 3.209 2.8 4.875 4.125l3.02 2.41L472 1299l2.887 2.371 2.675 2.191 2.442 2.004L482 1307h2v2l3.313 1.938 1.863 1.09c1.962 1.111 1.962 1.111 4.824 1.972v2a149 149 0 0 0 7.563 5.063l2.346 1.492q3.537 2.236 7.091 4.445l1.955 1.218c18.968 11.75 38.695 22.262 59.229 31.009.822.353 1.644.705 2.491 1.07q2.313.984 4.642 1.928c3.41 1.447 5.5 2.587 8.12 5.29 1.563 2.485 1.563 2.485 2.5 5.922.063 3.563.063 3.563-1.062 6.813-1.875 2.75-1.875 2.75-4.312 4.563-7.03 3.257-14.972 2.54-22.563 2.187-34.758-3.36-70.37-20.185-101.093-36.018q-1.872-.964-3.752-1.918c-7.935-4.029-15.56-8.45-23.092-13.189l-2.367-1.487c-4.517-2.881-8.797-5.922-12.972-9.282L417 1324h-3v-2l-3-2h-3c6.72 29.507 18.158 55.242 35.678 79.999C445 1402 445 1402 446.03 1404.107c1.448 2.825 3.707 4.687 5.97 6.893a251 251 0 0 1 4.188 5.125c3.997 4.942 8.183 9.658 12.488 14.332a233 233 0 0 1 5.637 6.418c7.629 8.742 15.936 16.765 25.03 23.965 2.708 2.201 5.238 4.523 7.782 6.91 10.045 9.219 21.237 17.115 32.25 25.125l2.121 1.548c18.196 13.119 37.967 24.002 58.004 34.015l1.986.995a461 461 0 0 0 43.264 18.942l3.732 1.41c19.151 7.179 38.638 13.398 58.518 18.215l2.83.706c26.704 6.64 53.64 10.616 81.02 13.013q2.907.258 5.812.558c8.8.9 17.625 1.122 26.463 1.348l2.579.067c17.133.426 34.182.186 51.296-.692l3.297-.167c40.639-2.25 82.453-9.798 121.133-22.372a298 298 0 0 1 10.826-3.254c15.6-4.416 30.815-10.216 45.792-16.403a744 744 0 0 1 4.189-1.71c9.653-3.907 18.977-8.075 28.099-13.102 3.77-2.074 7.615-3.972 11.476-5.867 33.022-16.352 64.663-36.814 93.188-60.125a974 974 0 0 1 4.938-3.875l2.152-1.68c1.594-1.206 3.246-2.336 4.91-3.445v-2l1.672-.75c2.78-1.492 5.11-3.287 7.578-5.25l2.703-2.125L1221 1439v-2l1.625-.687c3.2-1.769 5.665-3.85 8.375-6.313v-2h2v-2l1.69-.705c2.91-1.631 4.913-3.657 7.267-6.022l1.412-1.413q1.478-1.482 2.948-2.97 2.214-2.24 4.443-4.464c4.75-4.767 9.383-9.595 13.763-14.706 2.824-3.289 5.807-6.44 8.754-9.618L1275 1384v-2l3-1c2.079-2.206 2.079-2.206 4.188-4.937l2.414-3.028L1287 1370l2.086-2.566c4.844-5.964 9.712-11.996 13.914-18.434v-2h2a91 91 0 0 0 4.25-5.687l1.31-1.869c12.113-17.375 24.044-35.036 33.99-53.76 1.387-2.567 2.835-5.091 4.303-7.612 6.998-12.047 13.001-24.48 18.499-37.275 1.483-3.444 3.053-6.841 4.648-10.235 17.935-38.89 30.058-81.605 37.493-123.695.444-2.51.907-5.017 1.374-7.523.857-4.764 1.515-9.544 2.133-14.344l.415-3.06c2.667-20.637 2.881-41.303 2.896-62.079q.003-3.203.012-6.404c1.325-30.683 1.325-30.683-3.323-60.457a305 305 0 0 1-.875-6.937q-.27-2.205-.547-4.41c-.283-2.27-.565-4.54-.834-6.813-2.854-23.612-8.85-47.235-16.112-69.862-.953-2.982-1.85-5.981-2.757-8.978-2.657-8.575-5.409-17.068-8.812-25.379-1.606-3.96-3.108-7.96-4.622-11.957-4.234-10.764-8.91-21.322-13.691-31.851l-1.002-2.211c-4.003-8.812-8.08-17.535-12.74-26.023-2.608-4.75-4.932-9.594-7.196-14.516-2.495-5.414-5.168-10.53-8.34-15.586-1.7-2.86-3.142-5.796-4.597-8.79-3.07-6.254-6.451-12.281-9.937-18.312-3.764-6.512-7.384-13.013-10.66-19.785-1.284-2.603-2.67-5.122-4.09-7.653-3.199-5.793-5.99-11.759-8.796-17.749a491 491 0 0 0-7.017-14.375c-5.394-10.714-10.03-21.701-14.258-32.922-1.256-3.25-2.652-6.415-4.09-9.587-3.348-7.514-5.948-15.035-8.027-22.991l-.775-2.913q-.765-2.88-1.524-5.762a514 514 0 0 0-1.869-6.837c-2.456-8.854-4.43-17.723-5.832-26.801l-.419-2.696c-5.72-38.362-4.023-78.475 8.501-115.355 1.067-2.912 1.067-2.912.918-5.949-4.332 1.465-7.423 3.674-11 6.5l-3.477 2.73-1.778 1.404a314 314 0 0 1-4.956 3.792c-12.387 9.343-23.927 19.645-35.294 30.193a824 824 0 0 1-4.67 4.276c-9.801 8.939-19.563 18.037-28.16 28.16-1.966 2.297-4.002 4.524-6.04 6.757A330 330 0 0 0 1154 510l-1.274 1.612c-17.793 22.69-34.16 47.484-46.761 73.42a464 464 0 0 1-5.152 10.155l-.937 1.855c-2.1 4.001-4.514 6.948-7.876 9.958-2.353 1.176-3.82 1.134-6.437 1.125l-2.372.008C1081 608 1081 608 1078 607c-4.1-7.644-3.428-16.856-3.312-25.25l.031-4.387c.21-20.346 1.89-40.54 4.17-60.75 4.022-36.4 4.844-73.058 3.111-109.613l-.13-2.892c-1.263-24.826-7.143-49.887-15.87-73.108l-1.445-3.984c-2.09-5.8-2.09-5.8-4.946-11.235-1.442-2.492-2.452-4.822-3.484-7.5-2.012-5.152-4.44-9.95-7.125-14.781l-1.444-2.607c-8.11-14.417-17.81-27.834-27.418-41.278A217 217 0 0 1 1017 245h-2l-.562-2c-2.046-4.27-5.01-7.742-8.438-11h-2l-.762-1.723c-3.998-7.352-11.319-13.465-17.176-19.402l-1.72-1.76c-1.408-1.411-2.87-2.768-4.342-4.115h-2v-2l-5-2v-2h-2v-2c-3.47-3.226-7.275-6.074-11-9l-1.765-1.399q-2.641-2.09-5.298-4.163l-1.696-1.338c-1.385-1.071-2.81-2.09-4.241-3.1h-2v-2c-2.588-2.273-5.489-4.157-8.312-6.125l-2.381-1.707-2.295-1.613-2.11-1.485c-1.974-1.315-1.974-1.315-4.902-1.07v-2c-5.971-4.481-12.692-8.033-19.27-11.54a243 243 0 0 1-5.304-2.92C889.17 141.18 877.227 136.17 865 132"/><path fill="#102564" d="m1083.313 791.563 3.312.027c14.876.317 27.695 4.734 40.375 12.41 20.726 13.556 34.571 33.45 46 55 10.53 20.992 18.512 43.937 23 67l.494 2.412c5.126 25.285 6.784 50.66 6.756 76.4l-.002 2.79c-.022 9.097-.123 18.131-1.038 27.19-.257 2.336-.257 2.336-.21 5.208h-2l.574 2.863c.69 4.884-.039 9.478-.762 14.324l-.42 2.922c-6.58 44.352-20.66 88.76-48.619 124.434a456690065.256 456690065.256 0 0 0-4.922 6.133c-10.967 12.959-25.083 21.468-40.851 27.324-7.09 2.269-13.839 2.333-21.25 2.313l-3.488.048c-12.264.007-22.197-2.832-32.98-8.45-4.453-2.593-8.342-5.615-12.282-8.911l-3-2v-2l-1.68-.672c-10.913-6.246-19.629-20.986-25.886-31.621-10.433-18.2-19.772-37.616-24.73-58.09-.622-2.31-1.36-4.513-2.15-6.77-1.694-5.018-2.715-10.083-3.679-15.284q-.5-2.655-1.008-5.31l-.434-2.333c-.368-1.99-.368-1.99-1.433-3.92-.309-2.298-.509-4.597-.719-6.906-.173-2.148-.173-2.148-1.281-4.094-.28-1.791-.511-3.59-.719-5.39l-.386-3.344-.395-3.516-.395-3.375c-1.62-14.208-2.31-28.275-2.293-42.562l.001-2.506c.03-19.348.675-38.653 4.472-57.678.66-3.35 1.18-6.686 1.653-10.067C976.815 897.954 990.903 860.45 1014 830c2.329-2.832 4.791-5.524 7.32-8.18 1.748-1.725 1.748-1.725 2.68-3.82h2v-2a107 107 0 0 1 5.25-4.437c.975-.783 1.95-1.565 2.953-2.372L1037 807l2.234-1.785L1041 804h2v-2a847 847 0 0 1 7.25-3.312l2.008-.936c10.097-4.525 20.026-6.3 31.054-6.19M738 796l2.71.906c10.56 3.864 18.918 10.308 26.977 17.957 2.318 2.254 2.318 2.254 5.313 4.137v2h2c1.278 1.323 1.278 1.323 2.723 3.191l1.617 2.089 1.722 2.283 1.777 2.35C808.514 865.373 821.4 906.987 828 949l.386 2.421c8.658 57.13 3.167 123.878-17.575 177.662-8.578 21.287-18.967 41.297-33.811 58.917l-2.047 2.492c-10.233 11.989-23.155 20.66-37.691 26.633-12.525 4.379-27.583 4.228-40.632 2.575-8.644-1.662-16.798-5.797-24.63-9.7v-2l-2.062-.625c-3.352-1.569-5.664-3.566-8.387-6.035-1.527-1.43-1.527-1.43-3.551-2.34v-2h-2c-1.438-1.57-2.8-3.209-4.125-4.875l-2.437-3.059L647 1186l-2.125-2.535c-5.037-6.051-9.313-12.43-12.875-19.465v-2h-2l-3.625-7.687-1.004-2.127q-1.078-2.29-2.148-4.584a444 444 0 0 0-2.635-5.503c-3.83-8.001-6.828-16.103-9.576-24.52a989 989 0 0 0-2.131-6.429c-3.398-10.24-6.452-20.43-7.881-31.15l-1-1c-10.328-48.186-10.539-102.381.375-150.437l.673-2.999q.666-2.952 1.344-5.9a571 571 0 0 0 1.506-6.816c4.439-19.404 11.877-38.877 20.914-56.598l.944-1.86q1.117-2.197 2.244-4.39h2l.305-1.676c4.18-13.975 18.184-27.095 28.508-37.031 10.71-9.474 22.933-15.34 36.804-18.613 14.58-2.93 28.324-1.469 42.383 3.32"/><path fill="#061035" d="m1470 1100 3 1c-7.437 48.691-21.274 94.6-39.625 140.25l-.933 2.333a347 347 0 0 1-13.473 29.514c-1.55 3.043-3.043 6.114-4.54 9.184-15.963 32.507-34.713 63.458-56.007 92.761q-1.504 2.07-3 4.146c-8.397 11.631-17.137 22.877-26.422 33.812l-1.684 1.984c-7.099 8.334-14.401 16.457-21.872 24.458a506 506 0 0 0-4.124 4.519c-6.49 7.17-13.24 14.065-20.07 20.914l-2.69 2.703c-4.476 4.467-9.01 8.796-13.809 12.916-2.407 2.07-4.731 4.227-7.063 6.381-4.492 4.096-9.104 7.984-13.836 11.797a316 316 0 0 0-7.284 6.161c-8.791 7.593-18.136 14.398-27.568 21.167l-2.451 1.763c-84.468 60.545-184.936 101.961-297.652 114.553-17.323 1.695-34.507 1.93-51.897 1.684l-1-2 1.987-.044c26.151-.639 52.16-2.927 78.013-6.956l3.269-.507c18.796-2.964 37.268-6.9 55.731-11.493l3.233-.787c30.79-7.549 60.764-18.48 89.767-31.213l3.127-1.365c39.762-17.47 77.677-39.204 112.873-64.635l2.449-1.762c13.264-9.566 26.255-19.496 38.461-30.394 1.7-1.5 3.417-2.974 5.149-4.438 7.618-6.447 14.998-13.096 22.257-19.945a521 521 0 0 1 7.274-6.734l1.742-1.586a630 630 0 0 1 3.194-2.883c3.47-3.162 6.54-6.56 9.6-10.117 4-4.57 8.248-8.919 12.44-13.313l2.082-2.195 1.88-1.972c1.554-1.61 1.554-1.61 2.472-3.661h2l.754-1.727c1.436-2.619 3.133-4.475 5.184-6.648 5.223-5.7 9.938-11.719 14.664-17.828a514 514 0 0 1 4.085-5.172c24.557-30.778 45.597-64.251 63.946-99.052a404 404 0 0 1 3.676-6.753c12.539-22.724 22.31-46.97 31.36-71.256 1.218-3.26 2.453-6.514 3.69-9.767 13.073-34.829 22.593-70.925 27.641-107.797M1018 826c0 3 0 3-.812 5-1.203 2.025-2.532 3.344-4.188 5a179 179 0 0 0-2 4l-2 2-1.5 2.563L1006 847l-2 1c-.36 1.661-.69 3.329-1 5-1.062 2.313-1.062 2.313-2 4h-2l-.75 3.125c-1.07 3.812-3.005 6.616-5.25 9.875a144 144 0 0 0-1 4c-.977 2.54-2.02 5.048-3.062 7.563A44.4 44.4 0 0 0 987 888h-2l1 3h-2l-.375 3.688c-.425 3.409-1.247 6.151-2.625 9.312-.931 3.067-1.825 6.094-2.434 9.242-.576 2.807-1.292 5.561-2.026 8.33-1.704 6.476-3.01 12.672-3.364 19.389C973 943 973 943 972 945a77 77 0 0 0-.437 4.063 340 340 0 0 1-1.296 11.849c-4.046 32.61-4.419 67.737 1.733 100.088l.464 2.54c4.39 23.907 10.35 46.936 19.536 69.46l1.004 2.594c1.706 4.12 3.674 8.123 5.605 12.142 2.391 5.048 2.391 5.048 2.391 7.264l1.438 1.375c1.819 1.892 1.938 3.128 2.562 5.625l1.5 1.5c1.5 1.5 1.5 1.5 2.063 3.563L1009 1169l2 2q1.388 2.336 2.75 4.688c8.481 13.456 20.683 25.065 34.375 33.062 7.32 3.808 14.85 5.599 22.875 7.25l2.547.582c11.59 1.975 23.425.19 34.453-3.582 14.771-5.722 27.685-15.052 37.7-27.347 18.377-23.358 30.254-49.471 39.3-77.653l.848-2.627c6.04-19.035 9.192-38.663 12.152-58.373h2c1.006 37.415-14.228 78.51-31.656 111.027-5.896 10.669-12.698 20.49-20.344 29.973l-2.148 2.676c-10.968 12.959-25.084 21.468-40.852 27.324-7.09 2.269-13.839 2.333-21.25 2.313l-3.488.048c-12.264.007-22.197-2.832-32.98-8.45-4.453-2.593-8.342-5.615-12.282-8.911l-3-2v-2l-1.68-.672c-10.913-6.246-19.629-20.986-25.886-31.621-10.433-18.2-19.772-37.616-24.73-58.09-.622-2.31-1.36-4.513-2.15-6.77-1.694-5.018-2.715-10.083-3.679-15.284q-.5-2.655-1.008-5.31l-.434-2.333c-.368-1.99-.368-1.99-1.433-3.92-.309-2.298-.509-4.597-.719-6.906-.173-2.148-.173-2.148-1.281-4.094-.28-1.791-.511-3.59-.719-5.39l-.386-3.344-.395-3.516-.395-3.375c-1.62-14.208-2.31-28.275-2.293-42.562l.001-2.506c.03-19.348.675-38.653 4.472-57.678.66-3.35 1.18-6.686 1.653-10.067 5.434-34.769 17.98-69.064 37.812-98.187l1.394-2.047c2.38-3.426 4.77-6.487 7.856-9.328M862 245h2c-1.758 36.615-11.343 73.1-25 107l-1.195 3.059c-15.42 38.446-39.762 71.949-67.495 102.396a683 683 0 0 0-4.381 4.872c-5.226 5.868-10.62 11.524-16.171 17.083l-2.573 2.583a5211 5211 0 0 1-5.35 5.357 3710 3710 0 0 0-8.089 8.129C725.466 503.784 717.26 511.79 708 519c-1.987 1.746-3.894 3.551-5.812 5.375a233 233 0 0 1-13.5 11.625l-1.705 1.384c-4.573 3.593-9.151 6.14-14.975 7.12-4.144.084-7.69.026-11.57-1.535-4.719-2.87-8.113-6.392-10.97-11.098-6.86-13.411-11.506-27.643-14.53-42.371l-.456-2.204c-.539-2.759-1.014-5.524-1.482-8.296l-.374-2.1c-2.622-14.964-2.992-29.55-2.813-44.712q.022-3.397.04-6.795.05-8.197.147-16.393h1l.044 1.923a700 700 0 0 0 2.456 43.702c.066.75.131 1.502.2 2.275.67 13.253.67 13.253 3.3 26.1-.437 2.188-.437 2.188-1 4h2l-1 4h2l.41 2.129c1.273 6.197 2.744 12.378 4.778 18.371.812 2.5.812 2.5.812 6.5l2 1a71 71 0 0 1 1.688 4.5c2.191 5.637 4.954 10.267 9.312 14.5 2.61 1.753 4.894 2.556 8 3 4.532.29 8.336-.272 12.508-2.098 5.62-3.162 10.259-7.185 14.953-11.574 2.456-2.252 4.989-4.323 7.601-6.39 6.582-5.323 12.65-11.17 18.782-17a607 607 0 0 1 10.593-9.813c9.536-8.396 9.536-8.396 17.563-18.125h2l.812-1.802c1.2-2.22 2.395-3.622 4.2-5.37l1.785-1.75 1.89-1.828c5-4.92 9.793-9.882 14.313-15.25l2.625-2.996C801.79 417.084 822.251 383.906 837 347l.902-2.243C850.67 312.64 856.979 279.022 862 245M595 1026h1q.832 6.106 1.654 12.213.28 2.07.562 4.14c.892 6.554 1.774 13.093 2.288 19.69.355 4.205 1.233 7.916 2.496 11.957 1.112 4.62 2.116 9.267 3.145 13.906 1.138 5.084 2.355 10.102 3.855 15.094l1.113 3.727c4.509 14.747 10.036 28.861 17.102 42.576l1.043 2.052.942 1.833c.8 1.812.8 1.812 1.315 3.946L632 1159l1.5 1.5c1.5 1.5 1.5 1.5 2.063 3.563L636 1166l2 2c.666 1.26 1.309 2.533 1.938 3.813 7.59 13.885 20.726 26.94 34.062 35.187l2.113 1.363c10.596 6.08 24.503 8.836 36.637 9.2 14.546-.62 27.892-4.92 40.25-12.563 19.568-13.037 32.777-32.215 43.188-53a549 549 0 0 0 3.812-8l.893-1.871c12.79-26.962 19.917-56.682 24.107-86.129h2c.47 8.722-1.265 16.942-3 25.438l-.473 2.339c-7.67 37.617-21.544 74.568-46.527 104.223l-2.047 2.492c-10.233 11.989-23.155 20.66-37.691 26.633-12.525 4.379-27.583 4.228-40.632 2.575-8.644-1.662-16.798-5.797-24.63-9.7v-2l-2.062-.625c-3.352-1.569-5.664-3.566-8.387-6.035-1.527-1.43-1.527-1.43-3.551-2.34v-2h-2c-1.438-1.57-2.8-3.209-4.125-4.875l-2.437-3.059c-.805-1.012-1.61-2.023-2.438-3.066l-2.125-2.535c-5.037-6.051-9.313-12.43-12.875-19.465v-2h-2l-4.629-9.814q-1.078-2.29-2.148-4.584a444 444 0 0 0-2.635-5.503c-3.83-8.001-6.828-16.103-9.576-24.52a989 989 0 0 0-2.131-6.429c-3.398-10.24-6.452-20.43-7.881-31.15l-1-1c-.358-1.9-.66-3.81-.937-5.723l-.524-3.572-.539-3.767-.54-3.686q-.742-5.124-1.46-10.252l-.345-2.322c-.716-5.08-.772-10.062-.717-15.178l.013-2.492q.02-3.004.049-6.008M1249 416l3 1c-11.377 9.567-11.377 9.567-16.375 13.375-10.173 7.837-19.706 16.49-29.11 25.223a836 836 0 0 1-4.73 4.336c-9.432 8.61-18.796 17.35-27.086 27.086-1.98 2.307-4.025 4.546-6.074 6.793A330 330 0 0 0 1155 510l-1.274 1.612c-17.793 22.69-34.16 47.484-46.761 73.42a464 464 0 0 1-5.152 10.155l-.937 1.855c-2.72 5.183-6.023 8.722-10.876 11.958-3.068.546-5.929.518-9 0-2.937-2.062-2.937-2.062-5-5-1.705-4.926-2.247-9.213-2.23-14.41v-2.09q.006-2.178.024-4.358c.018-2.175.02-4.348.02-6.523.024-8.915.422-17.732 1.186-26.619h2c.677 4.664 1.075 8.747.543 13.434-.719 6.58-.765 13.139-.793 19.754l-.062 3.732c-.114 7.305-.114 7.305 1.64 14.318 1.536 2.978 1.536 2.978 4.672 4.762 3.454.067 3.454.067 7-1 4.638-3.85 6.988-8.277 9.625-13.562l2.64-5.13 1.366-2.66c14.863-28.745 32.62-55.805 53.369-80.648.425-.512.85-1.024 1.29-1.55a507 507 0 0 1 18.081-20.598c3.149-3.416 6.215-6.9 9.266-10.403 2.608-2.703 5.378-5.12 8.22-7.573 3.555-3.112 6.966-6.374 10.393-9.626l4.48-4.227 2.197-2.07c2.87-2.703 5.744-5.4 8.636-8.078l2.628-2.445c2.812-2.432 5.709-4.652 8.697-6.86 2.12-1.576 4.206-3.19 6.288-4.816l4.137-3.192 2.126-1.677 2.05-1.569 1.829-1.423zM477 1518c3.732 2.742 7.403 5.501 10.957 8.473 28.725 24.003 63.188 43.007 97.063 58.675a683 683 0 0 1 8.117 3.829c7.219 3.452 14.467 6.778 21.863 9.835l2.029.842c4.184 1.704 8.41 3.19 12.702 4.593 2.205.732 4.39 1.504 6.574 2.296 46.313 16.735 94.33 26.331 143.165 31.81l2.516.291a461 461 0 0 0 4.696.52c1.782.21 3.553.513 5.318.836l1 2c-20.518.865-40.932-3.312-61-7l-3.382-.606c-56.458-10.119-113.54-27.712-163.898-55.521-1.885-1.01-1.885-1.01-4.72-1.873v-2l-1.617-.445c-4.32-1.3-8.136-2.854-11.988-5.215l-2.63-1.61c-5.757-3.601-11.466-7.275-17.17-10.959l-2.841-1.822-2.553-1.646c-2.25-1.437-2.25-1.437-5.201-2.303v-2l-2.228-.812c-2.703-1.158-4.769-2.451-7.127-4.192l-2.385-1.744-2.447-1.814q-2.427-1.786-4.856-3.567l-2.157-1.596c-1.775-1.326-1.775-1.326-3.8-2.275v-2c-.563-.26-1.127-.52-1.707-.79-2.524-1.332-4.705-2.862-6.98-4.585l-2.387-1.773C478 1522 478 1522 477.23 1519.773zM448 1278c3.186 1.396 5.24 3.046 7.625 5.563 2.42 2.577 2.42 2.577 5.375 4.437v2l1.602.664c3.276 1.825 5.965 4.252 8.773 6.711 3.238 2.83 6.4 5.546 10.04 7.852L484 1307v2l1.625.25c3.248 1.026 5.663 2.716 8.375 4.75v2l2.094.727c3.431 1.503 6.35 3.514 9.406 5.648 13.826 9.417 28.549 17.398 43.59 24.69 1.95.954 3.886 1.933 5.82 2.92l3.965 2.015 1.961.997a186 186 0 0 0 10.996 5.073l2.452 1.043q2.335.984 4.69 1.922c3.642 1.533 6.366 2.98 8.983 5.988C590 1370 590 1370 591 1373.5c0 3.5 0 3.5-1.25 6.75-2.75 4.321-2.75 4.321-4.75 5.75-10.15 3.446-21.548 2.709-31.98.684-32.125-7.273-62.886-19.64-92.113-34.702q-1.872-.964-3.752-1.918c-7.935-4.029-15.56-8.45-23.092-13.189l-2.367-1.487a160 160 0 0 1-12.972-9.184c-1.824-1.395-1.824-1.395-4.724-2.204v-2l-5-2v-2c3.667 1.345 6.745 2.997 9.992 5.16l2.863 1.892 3.02 2.01c13.34 8.777 26.61 16.99 41.006 23.916a806 806 0 0 1 6.474 3.17c29.846 14.594 66.738 31.488 100.633 31.063 4.348-.305 8.217-.994 12.012-3.211 2.302-2.686 2.302-2.686 3-6-.257-3.279-.962-5.886-2-9-2.25-1.108-2.25-1.108-5-2-24.925-10.301-49.441-22.175-72-37l-3.117-2.012c-16.652-10.887-32.772-22.932-47.262-36.578-2.591-2.452-2.591-2.452-5.46-4.601L451 1283v-2h-2zM863 129q2.25.651 4.5 1.313l2.531.738c6.532 2.088 12.675 4.646 18.782 7.762l2.123 1.077c2.025 1.03 4.045 2.07 6.064 3.11l2.813 1.434C925.135 157.768 948.378 175.364 970 194l2.348 2.004c4.423 3.81 8.567 7.829 12.652 11.996q4.2 4.22 8.453 8.383c7.336 7.21 14.225 14.486 20.547 22.617l2.426 2.945c12.916 15.777 25.89 33.761 34.613 52.258.882 1.861.882 1.861 2.426 3.25 4.755 4.792 6.828 12.206 8.535 18.547a401 401 0 0 0 3 6c.659 2.157 1 3.754 1 6h2c.729 2.315 1.392 4.65 2 7l-1 2 2 1c.85 3.144 1 5.708 1 9l2 1 1 3-1 2h2l.375 3.125c.567 3.514 1.483 6.52 2.625 9.875.669 3.039 1.127 5.31.563 8.375L1079 376h2l-1 6h2l-1 9h-1l-.456-2.512c-6.307-37.876-6.307-37.876-21.032-72.957-1.432-2.397-2.385-4.65-3.387-7.25-2.012-5.152-4.44-9.95-7.125-14.781l-1.444-2.607c-7.363-13.09-16.025-25.338-24.812-37.501l-1.443-2.013-1.276-1.764C1018 248 1018 248 1017 245h-2c-1.402-1.645-1.402-1.645-2.937-3.812-1.5-2.107-2.895-4.025-4.754-5.825L1006 234v-2h-2c-1.097-1.289-2.124-2.636-3.125-4-4.062-5.228-8.564-9.89-13.25-14.562l-2.165-2.167c-3.414-3.561-3.414-3.561-7.46-6.271v-2l-5-2v-2h-2v-2l-1.754-.777c-2.457-1.338-4.157-2.86-6.183-4.786-4.347-3.975-8.974-7.258-13.897-10.467-1.42-.943-2.798-1.951-4.166-2.97v-2l-1.59-.715c-3.798-2.025-7.223-4.599-10.72-7.096-2.559-1.802-4.702-3.193-7.69-4.189v-2l-1.98-.68c-4.037-1.765-7.613-4.097-11.332-6.445-13.02-8.056-26.282-14.36-40.591-19.819l-2.75-1.076-2.468-.94L864 132zM431 733h2c.772 38.193-2.234 71.555-20 106l-1.773 3.496c-4.283 8.185-9.07 16.094-13.744 24.06-6.058 10.358-11.847 20.85-17.483 31.444l-1.832 3.441C364.56 927.831 358.082 956.16 352 985h-2c.984-24.65 9.51-48.492 19-71l.878-2.124c6.66-16.09 15.008-31.13 23.935-46.063 18.892-31.65 34.146-61.899 35.722-99.317l.13-2.92q.203-4.57.397-9.139l.276-6.236q.335-7.6.662-15.201M472 1436c2.994 1.339 5.02 2.798 7.285 5.16l1.841 1.892 1.937 2.01c5.224 5.33 10.486 10.23 16.351 14.848 2.688 2.173 5.19 4.475 7.711 6.84 10.045 9.219 21.237 17.115 32.25 25.125l2.121 1.548c18.196 13.119 37.967 24.002 58.004 34.015l1.986.995a461 461 0 0 0 43.264 18.942l3.732 1.41c19.151 7.179 38.638 13.398 58.518 18.215l2.83.706c25.093 6.239 50.544 9.987 76.17 13.294v1q-2.218.29-4.437.563l-2.497.316L777 1583l-1-1c-3.101-.29-6.203-.449-9.312-.621a60.5 60.5 0 0 1-7.926-1.32c-6.216-1.456-12.524-2.14-18.854-2.914-4.904-.63-9.221-1.541-13.908-3.145-5.182-1.133-10.402-2.08-15.615-3.057-5.526-1.066-10.784-2.296-16.084-4.183-2.643-.873-5.3-1.524-8.008-2.17-6.785-1.653-13.365-3.8-19.98-6.027l-3.51-1.159c-6.444-2.155-12.642-4.547-18.803-7.404-1.64-.68-3.285-1.35-4.937-2l-2.524-1-2.539-1q-2.532-.998-5.062-2l-2.223-.875c-22.351-9.262-44.302-20.123-64.715-33.125l-2.824-1.773A875 875 0 0 1 551 1503l-2.79-1.793c-18.316-11.973-35.527-25.774-51.519-40.7-2.53-2.356-5.101-4.654-7.691-6.945-3.988-3.578-7.828-7.284-11.625-11.062l-1.617-1.603A206 206 0 0 1 472 1437zM1386 694l3 1c1.283 1.923 1.283 1.923 2.566 4.46l1.455 2.836 1.542 3.079 3.269 6.406 1.635 3.223a526 526 0 0 0 5.136 9.733c5.155 9.608 9.941 19.396 14.71 29.2l1.044 2.141c4.16 8.536 8.129 17.095 11.643 25.922l1.143 2.865c16.956 42.96 31.27 86.697 39.357 132.26l.486 2.725c.85 5.115 1.332 9.964 1.014 15.15l-2 3-.44-2.829C1465 893.25 1455.011 852.723 1440 813l-1.684-4.527q-1.455-3.914-2.937-7.817a606 606 0 0 1-2.727-7.375c-6.147-16.928-13.445-33.405-21.693-49.411-1.638-3.194-3.233-6.408-4.834-9.62l-1.984-3.96a1736 1736 0 0 1-4.657-9.392c-5.823-11.85-5.823-11.85-12.523-23.218C1386 696 1386 696 1386 694M350 1252c1.02 1.785 1.02 1.785 2 4-.312 3.438-.312 3.438-1 7l-.562 2.938c-.145.68-.29 1.36-.438 2.062h-2l1 5h-2l.563 3.938c.316 2.214.316 2.214.437 4.062l-1 1c-.1 1.83-.13 3.664-.133 5.496l-.004 3.381.012 3.56-.012 3.55.004 3.384.004 3.123c-.039 2.504-.039 2.504 1.129 4.506-.281 2.008-.61 4.01-1 6h2l-1 7h2l-.062 2.25c.057 2.516.443 4.336 1.062 6.75q.482 2.685.938 5.375c.566 3.215 1.213 6.079 2.25 9.188L355 1348l-1 2h2c.182.701.364 1.402.55 2.125 1.752 6.61 3.499 13.168 6.7 19.25L364 1373l-1 2h2c1.625 3.62 2.994 6.98 4.063 10.813.678 3.248.678 3.248 2.937 5.187a309 309 0 0 1 3.5 7.125c8.709 17.772 20.182 34.413 32.719 49.7 1.744 2.13 3.422 4.3 5.094 6.487 9.056 11.621 18.893 22.163 29.375 32.5l3.896 3.87A4147 4147 0 0 0 456 1500h-3c-9.394-7.136-17.822-16.285-25.46-25.246-1.43-1.628-2.915-3.132-4.478-4.629L421 1468v-2h-2c-1.55-1.758-1.55-1.758-3.312-4.125-2.14-2.843-4.292-5.626-6.625-8.312L407 1451v-2h-2c-1.218-1.402-1.218-1.402-2.574-3.367l-1.526-2.188-1.587-2.32-1.53-2.203q-1.574-2.269-3.138-4.545a436 436 0 0 0-3.374-4.805c-4.2-5.905-8.041-11.948-11.709-18.197l-1.705-2.898c-4.66-7.996-8.889-16.12-12.857-24.477l-1.57-3.133c-13.432-27.495-21.459-62.221-19.43-92.867.877-12.273 3.092-24.056 6-36M285 1016h1l.076 2.548q.144 4.777.296 9.555.065 2.05.125 4.099c.321 10.764.914 21.465 2.065 32.173.31 2.918.48 5.754.438 8.688V1076l1 1v7c.427 3.846 1.114 7.552 2 11.313.937 4.058 1.362 8.046 1.71 12.19.38 3.276 1.142 6.403 1.985 9.587C296 1119 296 1119 295 1122h2l.313 3.438c.488 3.879 1.496 7.322 2.792 11 1.07 3.064 2.052 6.15 3.02 9.25l1.008 3.199c.867 3.113.867 3.113 1.363 6.195.498 2.886 1.3 5.23 2.442 7.918 1.095 2.598 2.116 5.162 3.003 7.84 1.217 3.632 2.621 7.174 4.059 10.723.26.646.52 1.292.79 1.958 1.11 2.76 2.226 5.517 3.358 8.268.918 2.383 1.421 4.698 1.852 7.211h2l.516 1.688c2.907 9.398 2.907 9.398 8.484 17.312l-1 2 2 1a171 171 0 0 1 3.625 6.813c3.244 6.304 6.846 12.043 11.004 17.796L349 1248l-1 3a187 187 0 0 1-4-6v-2h-2l-.996-1.844c-2.621-4.83-5.277-9.628-8.036-14.381-11.228-19.51-21.186-40.278-27.495-61.935a69 69 0 0 0-3.036-8.442c-1.641-3.88-2.56-7.667-3.437-11.773-.944-4.367-1.952-8.596-3.465-12.805-2.075-6.043-3.029-12.286-4.098-18.57l-.63-3.594c-.618-3.55-1.214-7.102-1.807-10.656l-.527-2.979c-3.235-19.229-3.76-38.505-3.598-57.958q.016-3.24.027-6.479.034-7.793.098-15.584M1308 677c2.621 2.359 4.135 4.806 5.785 7.91l1.592 2.971 1.686 3.182 3.53 6.593 1.759 3.285c2.191 4.067 4.446 8.095 6.71 12.121 5.89 10.516 11.422 21.222 16.938 31.938l1.848 3.547C1349 751 1349 751 1349 753l2 1a139 139 0 0 1 3.625 6.938l.984 1.958C1358 767.733 1358 767.733 1358 770l2 1c.741 1.617 1.472 3.24 2.137 4.89 1.26 3.08 2.687 6.08 4.093 9.094.77 2.016.77 2.016.77 5.016l2 1 1 5 2 1-1 2 2 1v3h2c.73 1.977 1.394 3.98 2 6l-1 2 2 1c.625 3.063.625 3.063 1 6h2l.75 2.313c2.141 6.317 4.443 12.577 6.813 18.812 1.345 3.569 2.564 7.173 3.753 10.797.545 1.656 1.111 3.306 1.684 4.953 1.218 3.807 2.24 7.656 3.277 11.516.806 2.908 1.75 5.753 2.723 8.609q1.034 3.49 2 7l.605 2.152c.522 1.935.964 3.891 1.395 5.848l-1 2h2l.684 6.055c.229 2.019.229 2.019 1.316 3.945l-1 3h2l-1 4h2l1 7-3 1c-.21-.925-.422-1.85-.64-2.804-5.66-24.795-5.66-24.795-12.728-49.218-.953-2.982-1.85-5.981-2.757-8.978-2.657-8.575-5.409-17.068-8.812-25.379-1.606-3.96-3.108-7.96-4.622-11.957-4.234-10.764-8.91-21.322-13.691-31.851l-1.002-2.211c-4.003-8.812-8.08-17.535-12.74-26.023-2.608-4.75-4.932-9.594-7.196-14.516-2.495-5.414-5.168-10.53-8.34-15.586-1.7-2.86-3.142-5.796-4.597-8.79-3.07-6.254-6.451-12.28-9.937-18.312C1308 680.695 1308 680.695 1308 677M624 388h2v2c-1.398 1.41-1.398 1.41-3.375 3.063-4.96 4.221-9.8 8.562-14.625 12.937l-2.752 2.489c-8.702 7.923-17.061 16.17-25.37 24.503a3719 3719 0 0 1-6.812 6.805l-4.402 4.406-2.02 2.015a227 227 0 0 0-11.133 12.033c-2.076 2.403-4.231 4.73-6.386 7.062-4.447 4.88-8.65 9.91-12.792 15.05a594 594 0 0 1-4.587 5.547C522.011 497.597 512.812 509.603 504 522l-2-1c1.609-5.335 5.08-9.22 8.5-13.5l3.84-4.863 1.902-2.401a357 357 0 0 0 4.45-5.779c5.976-7.926 12.35-15.423 18.91-22.868 1.686-1.916 3.353-3.847 5.023-5.776 6.476-7.378 13.055-14.701 20.133-21.508 1.365-1.306 1.365-1.306 2.242-3.305h2c.235-.56.47-1.121.71-1.7 1.604-2.86 3.577-4.814 5.915-7.113l2.477-2.457a194 194 0 0 1 6.64-5.96c4.824-4.19 9.279-8.719 13.758-13.27 6.948-7.06 13.948-13.968 21.875-19.937l1.96-1.497c.55-.352 1.1-.703 1.665-1.066M1144 820c4.883 1.975 7.371 5.723 10.574 9.754 4.187 5.51 7.843 11.334 11.426 17.246l1.109 1.798c14.323 23.405 23.475 50.382 28.891 77.202l.503 2.434c4.795 23.672 7.348 48.404 6.497 72.566l-2-1a88 88 0 0 1-.676-7.25l-.312-4.674-.159-2.506c-1.482-22.975-4.605-45.53-8.978-68.133l-.443-2.305c-.853-4.141-2.03-7.985-3.575-11.919-.994-2.567-1.9-5.159-2.802-7.76-9.231-26.372-20.03-50.597-38.118-72.14L1144 821zM1089 242l3 1c1.268 1.676 1.268 1.676 2.531 3.883l1.44 2.501 1.529 2.741 1.603 2.848c5.798 10.443 10.989 21.141 15.897 32.027l1.305 2.885C1136.65 335.41 1141.735 381.811 1144 431l-3 1-.12-2.873c-1.304-30.34-3.226-60.617-10.88-90.127l-.745-2.897c-4.169-15.888-9.84-30.997-16.255-46.103l-1.131-2.684c-3.369-7.95-6.796-15.65-11.431-22.957-2.809-4.609-5.074-9.512-7.438-14.359q-1.184-2.376-2.375-4.75zM920.763 87.763C933.166 94.62 945.385 101.873 957 110l1.834 1.274c20.9 14.53 41.385 29.505 60.166 46.726a800 800 0 0 0 4.125 3.625l1.941 1.7a365 365 0 0 0 3.961 3.382c4.078 3.467 7.64 7.078 11.098 11.16 3.429 3.9 7.167 7.5 10.875 11.133h-3c-2.05-1.725-2.05-1.725-4.387-4.129l-2.595-2.639-2.705-2.794c-5.384-5.52-10.726-10.979-16.62-15.956-1.71-1.497-3.264-3.076-4.818-4.732-4.856-4.922-10.413-9.024-15.888-13.225q-3.025-2.326-6.042-4.666c-23.633-18.704-23.633-18.704-49.035-34.785-2.71-1.524-5.332-3.181-7.972-4.824-16.436-10.136-33.329-19.603-51.688-25.812l-2.126-.726c-4.44-1.418-8.702-2.114-13.348-2.481L869 72l-1-1c-2-.088-4.002-.107-6.004-.098l-3.682.01-3.876.026-3.89.013q-4.773.018-9.548.049l2-2c26.39-6.021 55.022 6.531 77.763 18.763"/><path fill="#061035" d="M664.61 301.926c7.56 3.31 14.13 8.746 19.39 15.074 6.775 10.388 10.678 22.7 12 35 .877 18.536-.639 36.637-3 55h-2c-.127-7.33.23-14.464 1-21.75 1.955-20.22 1.515-39.408-6.312-58.441-3.146-6.829-6.756-12.137-12.688-16.809-5.608-3.812-11.534-6.078-18-8l-3-1c-3.016-.227-6.038-.19-9.062-.187l-2.588.002c-8.837.048-8.837.048-17.35 2.185l-1 2-4-1c13.251-9.596 32.132-7.21 46.61-2.074M1076 1532l3 1-3 2h-3v2h-4l-1 2-2-1v2q-2.936 1.005-5.875 2l-3.305 1.125c-2.82.875-2.82.875-4.82.875l-1 2c-3.453 1.727-6.158 2.22-10 2v2l-3.062.813c-2.706.758-5.196 1.705-7.75 2.874L1027 1555l-2-1-1 2c-1.926.816-1.926.816-4.312 1.563l-2.364.753-2.324.684-2.168.652-1.832.348-2-1-1 2-2-1-1 2-2-1-1 2c-1.855.563-1.855.563-4.187 1-2.667.509-5.139 1.109-7.72 1.969-3.115 1.038-6.202 1.811-9.405 2.531l-3.434.777q-4.062.902-8.129 1.785c-2.618.573-5.11 1.232-7.687 2-3.85 1.05-7.474 1.49-11.438 1.938-2.815.532-5.614 1.13-8.418 1.719-6.563 1.36-13.028 2.599-19.727 3.07-1.947.114-1.947.114-3.855 1.211-2.04.07-4.083.084-6.125.063l-3.32-.028L906 1581l2-2c2.305-.499 2.305-.499 5.23-.86l3.327-.433 3.63-.457c27.559-3.71 54.775-9.185 81.243-17.79a298 298 0 0 1 10.826-3.253c17.738-5.021 35.315-11.575 52.111-19.168l2.216-.996q2.121-.959 4.229-1.948c1.698-.77 3.441-1.441 5.188-2.095M772 821h3c1.391 1.323 1.391 1.323 2.82 3.191l1.608 2.089 1.697 2.283 1.763 2.35c25.811 34.91 40.033 78.076 45.465 120.864.232 2.073.442 4.148.647 6.223l-3-1-.364-2.174c-5.723-33.88-12.503-69.962-31.179-99.478-1.564-2.52-2.948-5.1-4.332-7.723-4.734-8.739-10.107-16.902-16.875-24.2L772 822zM1254 530h1v6h2l-1 4h2l-1 5h2c1.125 6.625 1.125 6.625 0 10h2l-1 4h2l-1 4h2c.515 1.996.997 3.985 1.395 6.008 1.003 5.082 2.592 9.602 4.593 14.37 1.398 3.623 2.356 7.317 3.301 11.079.671 2.594.671 2.594 1.797 5.18C1275 602 1275 602 1275 605h2c.182.58.364 1.16.55 1.758 1.15 3.57 2.276 6.908 4.013 10.242 1.611 3.363 2.267 6.49 2.91 10.145L1285 629l2 1c3.147 5.817 5.485 11.978 7.324 18.32L1295 650l2 1c1.021 1.762 1.021 1.762 2.094 4.043l1.183 2.506 1.223 2.639 1.223 2.58c2.037 4.346 3.89 8.625 5.277 13.232-3-2-3-2-4.727-5.027q-.961-1.95-1.898-3.91l-1.043-2.135A1037 1037 0 0 1 1297 658l-1.136-2.372c-2.287-4.78-4.55-9.57-6.8-14.368q-1.497-3.175-3.013-6.342c-3.253-6.832-6.218-13.71-8.871-20.8a288 288 0 0 0-3.68-9.18l-1.254-3.012a218 218 0 0 0-2.46-5.57c-4.147-9.26-6.555-18.96-9.101-28.75a424 424 0 0 0-1.85-6.797c-1.793-6.457-3.358-12.923-4.648-19.496l-.412-2.037c-.508-2.72-.824-4.992-.35-7.733zM1310 500h2l.043 2.7c1.612 44.47 17.802 88.286 40.043 126.503C1353 631 1353 631 1353 633h-2c-5.594-8.992-10.186-18.399-14.625-28l-1.63-3.52c-10.618-23.136-10.618-23.136-14.307-34.918l-.88-2.793c-6.404-20.919-10.04-41.895-9.558-63.769M330 858l1 2a116 116 0 0 1-3.312 7.563l-.975 2.115c-.85 1.8-1.777 3.564-2.713 5.322l-2 1 1 3c-1.437 3.188-1.437 3.188-3 6h-2l-.332 1.758c-.988 4.868-2.279 8.846-4.668 13.242-3.793 8.411-6.96 16.993-9 26h-2l1 3c-.488 2.016-.488 2.016-1.312 4.25l-.856 2.414L300 938c-1.104 3.557-1.982 6.873-2.5 10.563-.5 3.437-.5 3.437-1.465 6.171-1.16 3.661-1.646 7.142-2.098 10.953-.84 7.021-.84 7.021-1.937 10.313v4h-2l.563 3.25c.382 3.275.37 4.745-.563 7.75v4h-2v6h-1c-.34-8.696.52-16.987 1.971-25.546.341-2.016.666-4.034.988-6.054 1.107-6.795 2.453-13.433 4.364-20.05.908-3.153 1.624-6.343 2.365-9.538 5.842-23.806 15.452-46.386 25.75-68.562l.925-2.002c1.91-4.02 4.099-7.61 6.637-11.248M473 567h2c-.608 4.51-2.457 8.098-4.562 12.063C454.028 610.983 444.13 646.768 438 682h-2c2.682-39.505 18.403-79.007 36-114zM738 796l2.71.906c6.678 2.443 12.42 6.122 18.29 10.094l-3 1c-2.164-1.11-2.164-1.11-4.625-2.75-4.638-2.933-9.1-4.797-14.375-6.25v-2l-3 1a235 235 0 0 1-4-2c-10.965-2.29-22.106-3.268-33.02-.445-2.68.602-5.247.585-7.98.445l-1 2-2-1v2l-1.617.445c-11.689 3.519-21.83 10.759-30.27 19.512A117 117 0 0 0 650 824l-2.187 2.688A363 363 0 0 0 643 833l-1.395 1.824c-3.747 4.925-7.222 9.994-10.605 15.176l-1-3c8.855-16.382 23.881-34.281 39.849-44.142 21.47-12.35 44.566-14.892 68.151-6.858M628 850h2c-1.685 5.315-3.45 10.612-6.5 15.313-2.23 3.995-3.296 8.29-4.5 12.687h-2l-.586 2.45-.789 3.237-.773 3.2c-.772 2.822-1.763 5.404-2.852 8.113-.55 2.263-.994 4.53-1.437 6.816C610 904 610 904 609.066 905.762c-1.594 3.346-2.306 6.893-3.129 10.488l-.525 2.2c-.845 3.632-1.537 7.215-1.97 10.921C603 933 603 933 602 935.813c-1.19 3.791-1.419 7.355-1.715 11.304-.356 3.604-1.075 7.067-1.883 10.594-.481 2.35-.481 2.35-.398 5.016L598 965l-1 1a177 177 0 0 0-.062 7.063l.027 3.91L597 980h-2v8h-1c.566-23.323 3.02-45.766 8.408-68.481.519-2.208 1.01-4.42 1.487-6.636 4.42-19.416 11.877-38.906 20.918-56.633.31-.614.622-1.227.943-1.86q1.117-2.197 2.244-4.39M1083.313 791.563l3.312.027c14.143.301 26.2 4.27 38.448 11.238 7.17 4.362 13.883 9.41 18.927 16.172-1.746-.273-1.746-.273-4-1-1.973-1.602-1.973-1.602-4.062-3.625-9.37-8.598-19.854-13.774-31.938-17.375l-3.477-1.078c-5.755-1.412-11.57-1.173-17.46-1.11l-3.42.002c-6.293.033-12.405.36-18.643 1.186v2c-6 2-6 2-8.879 2.875-8.253 2.975-15.062 8.635-21.344 14.621L1029 817h-2l-.625 1.688c-1.925 3.237-4.414 4.994-7.375 7.312 1.37-2.95 2.878-5.525 5-8h2v-2a107 107 0 0 1 5.25-4.437c.975-.783 1.95-1.565 2.953-2.372L1037 807l2.234-1.785L1041 804h2v-2a847 847 0 0 1 7.25-3.312l2.008-.936c10.097-4.525 20.026-6.3 31.054-6.19M395 595c1.16 3.478.708 5.459 0 9h-2l1 3h-2l1 3c-.812 2.625-.812 2.625-2 5l-2 1 1 3c-.722 1.968-1.45 3.935-2.234 5.879-1.08 2.99-1.41 5.972-1.766 9.121-.32 1.67-.647 3.337-1 5h-2l1 3h-2l.563 1.75c.492 2.532.121 3.79-.563 6.25-1.528 6.252-2.566 12.51-3.437 18.887-.575 3.177-1.533 6.058-2.563 9.113q-.063 3 0 6a447 447 0 0 1-1 6 531 531 0 0 0-.437 4.813c-.457 4.856-1.417 9.448-2.563 14.187h-1c-1.395-35.183 8.168-82.335 24-114M1190 1463l2 1c-8.697 7.563-18.06 13.952-27.61 20.374-2.47 1.68-4.909 3.4-7.347 5.126-4.948 3.474-10.02 6.708-15.168 9.875l-2.762 1.704c-7.293 4.472-14.687 8.724-22.18 12.847a472 472 0 0 0-6.019 3.414c-17.64 10.122-17.64 10.122-24.914 12.66l-3-1c6.956-3.758 13.913-7.493 21.017-10.967a235 235 0 0 0 19.69-10.82 184 184 0 0 1 10.793-6.15c6.533-3.505 12.593-7.691 18.716-11.856 2.514-1.7 5.058-3.356 7.597-5.02 5.294-3.527 10.465-7.215 15.624-10.937l2.334-1.683c3.818-2.77 7.578-5.577 11.229-8.567M364 1151h3l.791 2.041c5.178 13.303 10.439 26.383 17.209 38.959l1.123 2.125c6.67 12.586 13.981 24.982 22.725 36.258L410 1232v2h-2a142 142 0 0 1-5.125-7.187l-1.491-2.203c-4.321-6.424-8.412-12.964-12.384-19.61l-1.66-2.664c-9.398-15.418-17.099-32.401-23.34-49.336zM1282.125 335.688c.762.005 1.524.01 2.309.017 8.188.175 14.523 2.003 21.691 5.983 6.997 4.485 12.144 9.467 16.125 16.812 5.99 13.045 7.382 25.326 6.75 39.5h-2l-.297-3.848c-1.152-13.732-2.403-27.35-10.207-39.144-4.284-5.75-10.09-10.867-16.578-14.02-7.036-2.758-13.814-3.128-21.293-3.05l-2.52.013q-3.053.02-6.105.049c3.805-2.5 7.73-2.346 12.125-2.312M408 1326h2l.563 1.813c8.246 26.461 18.208 49.478 34.197 72.236C446 1402 446 1402 447 1405h-2c-1.401-1.646-1.401-1.646-3.012-3.953l-1.787-2.548-1.889-2.749c-.635-.92-1.27-1.839-1.926-2.786-13.478-19.648-23.1-40.667-28.386-63.964zM446 497c0 3.985-1.549 6.176-3.492 9.586-1.894 3.033-4.019 5.818-6.274 8.59-1.322 1.955-1.715 3.544-2.234 5.824a102 102 0 0 1-3 3v2l-1.32 1.281c-2.142 2.191-3.215 4.466-4.555 7.219l-1.562 3.203A656 656 0 0 0 417 552h-2l-.375 2.938L414 558l-2 1a157 157 0 0 0-3 7.5 157 157 0 0 1-3 7.5l-2 1 1 3h-2l.188 2.125c-.233 3.568-1.38 5.817-3.188 8.875l-2 1c-.656 2.527-.656 2.527-1 5-.622-1.666-.622-1.666-1-4 .738-2.508.738-2.508 1.957-5.34l1.358-3.19 1.498-3.408 1.523-3.521C429.27 513.73 429.27 513.73 446 497M1407 1114h2l1 4h-2l1 5h-2l1 4h-2l.125 3.438c0 6.865-1.922 13.11-4.125 19.562v2h-2l1 4h-2l1 3h-2l-.402 2.703-.535 3.547-.528 3.516c-.408 2.465-.874 4.828-1.535 7.234h-2l1 3h-2l1 3h-2l1 3c-.688 1.736-1.385 3.47-2.168 5.164-1.721 3.798-2.896 7.78-3.832 11.836h-2c.61-4.233 1.588-8.091 2.969-12.137l1.218-3.636.649-1.929c4.17-12.462 7.84-25.006 11.101-37.735l.56-2.165c2.593-10.065 4.702-20.163 6.503-30.398M1383 1202l2 3h-2l.152 2.121c-.182 3.443-1.188 5.8-2.59 8.941-1.459 3.298-2.824 6.401-3.562 9.938h-2l-1 6h-2l.25 2.125c-.25 2.875-.25 2.875-2.125 5.875l-2.125 3a249 249 0 0 0-2 5c-1.772 3.78-3.64 7.512-5.5 11.25l-1.512 3.086-1.457 2.93-1.326 2.68L1355 1270l-2 1c1.718-5.944 4.52-11.288 7.25-16.812 5.128-10.51 9.835-21.162 14.375-31.938l.925-2.194c2.526-6.002 5.048-12.004 7.45-18.056M1325 408h3c-.944 9.099-2.8 17.868-4.937 26.75l-.767 3.19A316 316 0 0 1 1317 457h-2c1.085-9.582 3.34-18.758 5.792-28.068 1.8-6.932 3.142-13.85 4.208-20.932M503 522c-1.315 3.638-2.915 6.494-5.207 9.602-4.517 6.31-8.314 12.983-12.162 19.714l-1.643 2.832-1.452 2.537c-1.614 2.433-3.409 4.324-5.536 6.315l-1-2a108 108 0 0 1 3.875-7.25l1.235-2.158c3.444-5.957 7.104-11.759 10.878-17.51a276 276 0 0 0 4.95-7.894L499 523c2-1 2-1 4-1M1350 1275l1 2c-.453 1.84-.453 1.84-1.25 3.938l-.766 2.09c-1.053 2.11-2.319 3.33-3.984 4.972v2l-1.375 1.25c-2.159 2.325-2.67 4.755-3.625 7.75l-2 2-1 3-2 2c-.813 1.173-1.6 2.364-2.375 3.563-5.01 7.614-10.35 15.005-15.625 22.437l-1-2 2.238-3.305c9.059-13.44 17.866-27.026 25.48-41.347 1.94-3.553 4.097-6.942 6.282-10.348M1407 918h4l-1 6h2l-1 8 2 1-1 5 2 1-1 6 2 1-1 7h2l-1 10h2l-1 7h-2l-.184-2.957-.254-3.856c-.08-1.264-.162-2.529-.246-3.832-.188-3.347-.188-3.347-1.316-6.355-.32-2.33-.607-4.664-.875-7-1.112-9.376-2.606-18.683-4.125-28M1263 412c1 2 1 2 1 6h-2l1 3h-2l1 3h-2l1 4h-2l1 4h-2l1 5h-2l.563 1.688c.513 2.711.101 4.656-.563 7.312h-2l1 5h-2l1 7h-2v7l-2 1c1.65-18.162 4.828-35.79 11-53zM1352 634c1.865.774 1.865.774 4 2 1.182 1.638 1.182 1.638 2.156 3.613l1.143 2.255 1.201 2.444a479 479 0 0 0 12.125 22.375l1.615 2.808q1.876 3.255 3.76 6.505h-3l-.99-1.737-4.572-8.013-1.663-2.915A970 970 0 0 0 1359 648.25c-2.708-4.608-4.988-9.3-7-14.25M782 323l2 3-.84 1.574c-1.98 3.814-3.528 7.131-4.16 11.426l-1 2h-2l-.367 1.828-.508 2.422-.492 2.39c-.63 2.347-1.429 4.255-2.633 6.36l-1.5 1.375c-1.74 1.663-1.74 1.663-2.5 4.625-1.028 3.084-1.701 3.878-4 6a249 249 0 0 0-4 6l-1-2a157 157 0 0 1 4.375-7.937C770.527 349.54 777.018 336.55 782 323M353 1111l3 1a88 88 0 0 1 1.875 8.125c1.513 7.513 3.532 14.611 6.074 21.836.811 2.346 1.51 4.621 2.051 7.039h-3c-10-28.8-10-28.8-10-38M798 257l2 1v8h-2l1 5h-2l1 5h-2l.625 1.625c.513 3.252-.546 5.25-1.625 8.375a225 225 0 0 0-1 5.5c-.685 3.995-1.628 7.677-3 11.5v2h-2l1 3h-2c.637-4.818 1.495-9.52 2.559-14.262l.92-4.142q.716-3.203 1.434-6.403c1.948-8.695 3.745-17.38 5.087-26.193M1270 338c-2.66 1.773-5.312 3.14-8.19 4.511-8.473 4.067-16.182 8.812-23.894 14.163a935 935 0 0 1-10.228 6.951l-1.942 1.328A155 155 0 0 1 1221 368h-2v-2a151 151 0 0 1 7.375-4.687c4.685-2.856 9.308-5.71 13.75-8.938 21.171-15.143 21.171-15.143 29.875-14.375M1314 458h2c-.58 7.755-1.624 15.347-3 23l-2-1c.442-7.532 1.14-14.68 3-22M411 1237c3.186 1.375 4.995 2.861 7.164 5.555l1.711 2.113 1.75 2.207 1.773 2.184c2.582 3.215 4.856 6.186 6.602 9.941-4.967-1.967-7.492-5.957-10.738-10.023-2.945-3.876-5.67-7.859-8.262-11.977"/><path fill="#061036" d="M458 1503c4.358 2.023 7.634 4.884 11.25 8l1.969 1.656 1.86 1.594c.84.72.84.72 1.7 1.453L476 1517v2l-4-2v-2l-2.2-.75c-3.078-1.374-5.115-2.997-7.613-5.25l-2.394-2.125L458 1505z"/><path fill="#061035" d="M433 1263c4.25 1.598 6.822 4.813 9.75 8.125l1.535 1.707A876 876 0 0 1 448 1277h-3a85 85 0 0 1-5.625-5.312l-1.523-1.514c-2.335-2.369-3.787-3.979-4.852-7.174M1082 470h1c.087 3.604.14 7.208.188 10.813l.076 3.103.029 2.979.048 2.745L1083 492c-1.518 1.82-1.518 1.82-3 3q.211-4.844.438-9.687l.119-2.764.127-2.686.11-2.46c.216-2.524.665-4.929 1.206-7.403M457 1419c4.25 1.598 6.822 4.813 9.75 8.125l1.535 1.707A876 876 0 0 1 472 1433h-3c-4.905-3.824-8.555-8.885-12-14M1377 678h2l8 14h-3c-1.824-2.555-1.824-2.555-3.687-5.875l-1.887-3.305C1377 680 1377 680 1377 678M787 308l2 3c-.68 2.41-.68 2.41-1.875 5.063-1.606 3.35-1.606 3.35-2.125 6.937h-2c.568-5.455 1.946-9.91 4-15M1073 219c1.828.742 1.828.742 4 2 1.484 1.945 1.484 1.945 2.75 4.125l1.297 2.195.953 1.68c-2.302-.979-3.822-1.797-5.484-3.691l-1.266-1.871-1.297-1.88L1073 220zM1080 500l2 2c.125 3.625.125 3.625 0 7l-3 1zM351 1101l3 1v7l-2 1z"/></svg>