<svg width="158" height="154" viewBox="0 0 158 154" fill="none" xmlns="http://www.w3.org/2000/svg">
<g clip-path="url(#clip0_3618_168)">
<path d="M7.98415 68.3008C12.3796 30.5792 46.522 3.56319 84.2435 7.95862C121.965 12.354 148.981 46.4964 144.585 84.2179C140.19 121.939 106.047 148.955 68.3264 144.56C30.6048 140.164 3.58878 106.022 7.98415 68.3008Z" fill="white"/>
<path d="M7.98415 68.3008C12.3796 30.5792 46.522 3.56319 84.2435 7.95862C121.965 12.354 148.981 46.4964 144.585 84.2179C140.19 121.939 106.047 148.955 68.3264 144.56C30.6048 140.164 3.58878 106.022 7.98415 68.3008Z" fill="#2D77FF" fill-opacity="0.3"/>
<path d="M88.6858 8.47624C126.407 12.8716 153.423 47.014 149.027 84.7356C144.632 122.457 110.49 149.473 72.7686 145.077L68.3264 144.56C103.594 148.669 135.747 121.421 140.143 83.7003C144.538 45.9788 119.511 12.0681 84.2435 7.95862L88.6858 8.47624Z" fill="#859CC4"/>
<path d="M35.914 43.1506C36.6763 36.6083 42.598 31.9227 49.1403 32.685L105.189 39.216C111.731 39.9783 116.417 45.8999 115.655 52.4422L109.124 108.491C108.361 115.033 102.44 119.719 95.8973 118.956L39.8487 112.425C33.3064 111.663 28.6207 105.742 29.3831 99.1991L35.914 43.1506Z" fill="#2D77FF"/>
<path d="M105.189 39.216C113.694 40.207 119.785 47.9051 118.794 56.4101L113.091 105.351C112.1 113.856 104.403 119.947 95.8973 118.956C100.477 119.49 104.807 114.619 105.57 108.077L112.101 52.0281C112.863 45.4858 109.769 39.7496 105.189 39.216Z" fill="#2A5BB4"/>
<path fill-rule="evenodd" clip-rule="evenodd" d="M65.5749 59.4665C65.6535 59.1461 65.8462 58.8653 66.1168 58.6767C66.3875 58.4881 66.7176 58.4046 67.0454 58.4418L79.3263 59.8728C80.6622 60.1182 81.9351 60.6301 83.0691 61.3779C84.203 62.1257 85.1748 63.0942 85.9266 64.2255C86.6783 65.3568 87.1946 66.6279 87.4447 67.9631C87.6948 69.2982 87.6735 70.67 87.3822 71.9967C85.8557 79.8699 79.2602 82.014 75.9933 81.6333L71.7103 81.1342L68.7424 90.7332C68.6522 91.0408 68.4554 91.3062 68.1874 91.4819C67.9194 91.6577 67.5975 91.7323 67.2795 91.6924L59.1724 90.7477C58.9791 90.7218 58.7935 90.6555 58.6276 90.5531C58.4617 90.4506 58.3193 90.3144 58.2095 90.1533C58.0998 89.9921 58.0252 89.8097 57.9907 89.6178C57.9562 89.4259 57.9625 89.2289 58.0093 89.0396L61.7595 74.4375L59.7491 74.2032C59.5704 74.1822 59.3975 74.126 59.2406 74.0379C59.0836 73.9498 58.9456 73.8316 58.8345 73.69C58.7234 73.5484 58.6414 73.3863 58.5931 73.2129C58.5449 73.0395 58.5314 72.8582 58.5534 72.6796C58.6413 71.9257 59.3135 71.3839 60.0674 71.4717L62.4493 71.7493L63.8179 66.3715L60.704 66.0087C60.5252 65.9876 60.3524 65.9314 60.1954 65.8434C60.0385 65.7553 59.9005 65.637 59.7894 65.4955C59.6782 65.3539 59.5962 65.1917 59.548 65.0183C59.4997 64.8449 59.4862 64.6637 59.5083 64.4851C59.5266 64.3066 59.5802 64.1335 59.6659 63.9759C59.7516 63.8183 59.8676 63.6792 60.0074 63.5668C60.1472 63.4543 60.3079 63.3707 60.4802 63.3208C60.6526 63.2709 60.8331 63.2556 61.0113 63.2759L64.4967 63.682L65.5749 59.4665ZM66.5385 66.6885L65.1589 72.065L74.9159 73.2019C75.2755 73.2564 75.6425 73.2359 75.9938 73.1418C76.3451 73.0478 76.6732 72.8822 76.9575 72.6553C77.2418 72.4285 77.4762 72.1454 77.6459 71.8238C77.8156 71.5021 77.9171 71.1488 77.9439 70.7861C78.0012 70.427 77.9837 70.0599 77.8925 69.7078C77.8012 69.3558 77.6382 69.0263 77.4137 68.7402C77.1892 68.4541 76.908 68.2175 76.5877 68.0452C76.2674 67.8729 75.915 67.7686 75.5525 67.7389L66.5385 66.6885ZM64.4801 74.7545L74.5976 75.9334C75.3137 76.0245 76.0408 75.9707 76.7357 75.7754C77.4306 75.5801 78.0792 75.2472 78.643 74.7964C79.2068 74.3457 79.6743 73.7863 80.0178 73.1514C80.3613 72.5165 80.5738 71.8192 80.6426 71.1006C80.9991 68.0413 78.941 65.3651 75.8708 65.0074L67.2283 64.0003L67.9071 61.3108L78.8332 62.584C79.8122 62.7611 80.7452 63.1347 81.576 63.6821C82.4068 64.2295 83.1181 64.9395 83.6671 65.7692C84.2162 66.5989 84.5915 67.5312 84.7705 68.5099C84.9496 69.4885 84.9286 70.4933 84.7089 71.4637C83.5096 77.6696 78.4422 79.15 76.3116 78.9018L70.9032 78.2716C70.5859 78.2368 70.2665 78.3135 69.9996 78.4885C69.7327 78.6635 69.535 78.9259 69.4404 79.2307L66.4833 88.831L61.0422 88.197L64.4801 74.7545Z" fill="white"/>
</g>
<defs>
<clipPath id="clip0_3618_168">
<rect width="142.517" height="137.746" fill="white" transform="translate(15.9428) rotate(6.64631)"/>
</clipPath>
</defs>
</svg>
