<svg width="229" height="226" viewBox="0 0 229 226" fill="none" xmlns="http://www.w3.org/2000/svg">
<g clip-path="url(#clip0_3618_157)">
<path d="M28.6039 142.117C12.8064 95.9864 37.3302 45.8061 83.3794 30.0366C129.429 14.2671 179.565 38.88 195.363 85.011C211.16 131.142 186.637 181.322 140.587 197.092C94.5381 212.861 44.4015 188.248 28.6039 142.117Z" fill="white"/>
<path d="M28.6039 142.117C12.8064 95.9864 37.3302 45.8061 83.3794 30.0366C129.429 14.2671 179.565 38.88 195.363 85.011C211.16 131.142 186.637 181.322 140.587 197.092C94.5381 212.861 44.4015 188.248 28.6039 142.117Z" fill="#B3B3B3"/>
<path d="M87.7108 28.5534C133.76 12.7838 183.897 37.3967 199.694 83.5277C215.492 129.659 190.968 179.839 144.919 195.608L140.587 197.092C184.244 182.141 206.829 132.625 191.031 86.4943C175.234 40.3633 127.036 15.0864 83.3794 30.0366L87.7108 28.5534Z" fill="#7E7E7E"/>
<path d="M46.4384 97.6306C43.7029 89.6426 47.9495 80.9534 55.9233 78.2227L124.504 54.7374C132.478 52.0067 141.159 56.2687 143.895 64.2568L167.422 132.959C170.157 140.947 165.911 149.636 157.937 152.367L89.3565 175.852C81.3826 178.583 72.701 174.321 69.9655 166.333L46.4384 97.6306Z" fill="#2D2D2D"/>
<path d="M124.504 54.7374C134.87 51.1877 146.156 56.7281 149.712 67.1126L170.267 127.137C173.823 137.521 168.303 148.817 157.937 152.367C163.519 150.456 165.826 142.431 163.091 134.442L139.563 65.7401C136.828 57.752 130.086 52.8259 124.504 54.7374Z" fill="#202020"/>
<mask id="mask0_3618_157" style="mask-type:luminance" maskUnits="userSpaceOnUse" x="73" y="83" width="65" height="66">
<path d="M121.303 83.4254L73.1509 99.915L89.6698 148.153L137.822 131.663L121.303 83.4254Z" fill="white"/>
</mask>
<g mask="url(#mask0_3618_157)">
<path d="M98.4139 95.1175C95.6656 96.0587 93.1828 97.5152 91.03 99.3977C86.8626 103.145 84.3152 108.37 83.9258 113.968C83.7259 116.846 84.1078 119.735 85.0485 122.463C85.2261 122.982 85.4219 123.495 85.6359 124.001C85.9591 124.75 86.0535 125.578 85.907 126.379C85.7605 127.181 85.3799 127.921 84.8132 128.505L83.4298 129.931L84.7389 133.754L88.8133 129.529L88.9357 129.415L88.9391 129.426L90.2156 128.113L91.4714 126.818L91.577 126.694L116.082 101.326L118.841 98.4791L124.454 92.6674L123.145 88.8446L112.881 99.4692L89.6275 123.522L89.4568 123.704L89.3437 123.485C88.9929 122.782 88.691 122.056 88.4404 121.312C86.8884 116.78 87.1936 111.911 89.2903 107.599C90.3156 105.506 91.7366 103.631 93.4748 102.079C95.2192 100.533 97.2464 99.3395 99.4449 98.5663L99.5791 98.5203C102.448 97.5322 105.523 97.2948 108.511 97.8307L111.206 95.0438L111.414 94.8247C107.153 93.57 102.609 93.672 98.4117 95.116L98.4139 95.1175ZM126.22 97.7826L94.8456 130.23L92.0861 133.077L86.4913 138.871L87.8004 142.694L93.2351 137.081L98.0515 132.097L121.333 108.061L121.506 107.878L121.617 108.099C121.972 108.806 122.273 109.543 122.526 110.28C124.078 114.812 123.777 119.694 121.675 123.996C120.649 126.09 119.228 127.963 117.49 129.515C115.753 131.071 113.723 132.265 111.52 133.029L111.399 133.07C108.521 134.057 105.437 134.293 102.439 133.756L102.33 133.868L99.5428 136.746C101.026 137.181 102.551 137.458 104.092 137.573C106.961 137.776 109.84 137.399 112.56 136.463C115.233 135.551 117.7 134.118 119.818 132.246C121.935 130.374 123.662 128.101 124.897 125.558C126.14 123.014 126.869 120.251 127.043 117.425C127.217 114.599 126.832 111.765 125.912 109.087C125.734 108.566 125.542 108.038 125.32 107.535C124.998 106.787 124.903 105.959 125.05 105.158C125.196 104.356 125.577 103.617 126.143 103.032L127.528 101.603L126.22 97.7826Z" fill="white"/>
</g>
</g>
<defs>
<clipPath id="clip0_3618_157">
<rect width="180.844" height="176.579" fill="white" transform="translate(0 58.5898) rotate(-18.9037)"/>
</clipPath>
</defs>
</svg>
