<svg width="226" height="220" viewBox="0 0 226 220" fill="none" xmlns="http://www.w3.org/2000/svg">
<g clip-path="url(#clip0_3618_130)">
<path d="M15.0125 94.4575C23.3037 42.29 72.2685 6.71393 124.379 14.996C176.489 23.2781 212.011 72.282 203.719 124.449C195.428 176.617 146.464 212.193 94.3535 203.911C42.2435 195.629 6.72132 146.625 15.0125 94.4575Z" fill="white"/>
<path d="M15.0125 94.4575C23.3037 42.29 72.2685 6.71393 124.379 14.996C176.489 23.2781 212.011 72.282 203.719 124.449C195.428 176.617 146.464 212.193 94.3535 203.911C42.2435 195.629 6.72132 146.625 15.0125 94.4575Z" fill="#B8BEE4"/>
<path d="M130.505 15.9698C182.615 24.2518 218.137 73.2558 209.846 125.423C201.555 177.591 152.59 213.167 100.48 204.885L94.3535 203.911C143.08 211.655 189.301 175.643 197.593 123.476C205.884 71.3083 173.105 22.7403 124.379 14.996L130.505 15.9698Z" fill="#888FBC"/>
<path d="M55.4969 61.0643C56.9326 52.031 65.4113 45.8706 74.4347 47.3047L152.041 59.6391C161.065 61.0732 167.216 69.5587 165.78 78.5921L153.432 156.284C151.996 165.318 143.518 171.478 134.494 170.044L56.8876 157.71C47.8642 156.275 41.7132 147.79 43.1489 138.757L55.4969 61.0643Z" fill="#374DDF"/>
<path d="M152.041 59.6391C163.772 61.5034 171.768 72.5346 169.902 84.278L159.114 152.156C157.247 163.899 146.224 171.908 134.494 170.044C140.811 171.048 147.095 164.539 148.531 155.505L160.879 77.813C162.314 68.7797 158.358 60.643 152.041 59.6391Z" fill="#22308F"/>
<g clip-path="url(#clip1_3618_130)">
<path d="M105.046 80.2638C120.046 82.6478 130.272 96.7391 127.888 111.739C125.504 126.74 111.413 136.966 96.4127 134.582C81.4124 132.198 71.186 118.107 73.5701 103.106C75.9542 88.1061 90.0454 77.8797 105.046 80.2638ZM109.236 90.6059C108.854 90.3364 108.407 90.4742 108.24 90.8705C108.12 90.9576 108.103 91.0612 108.071 91.2665L107.841 92.7094L107.83 92.8886C107.863 93.2519 108.03 93.5901 108.297 93.8382C115.908 98.0064 118.622 107.627 114.36 115.082C112.121 119.164 108.184 121.916 103.696 122.788C103.249 122.928 102.995 123.204 102.913 123.72L102.683 125.163L102.668 125.314C102.658 125.479 102.702 125.643 102.793 125.782C102.884 125.921 103.017 126.027 103.172 126.085C103.276 126.101 103.483 126.134 103.603 126.049C106.046 125.692 108.395 124.855 110.514 123.586C112.633 122.317 114.48 120.642 115.949 118.657C117.418 116.672 118.48 114.415 119.073 112.018C119.666 109.621 119.779 107.129 119.406 104.688C118.479 98.5194 114.631 93.3638 109.236 90.6059ZM98.2863 88.7612C98.1827 88.7448 97.9756 88.7119 97.8559 88.7973C95.4122 89.1543 93.0632 89.9912 90.9443 91.2598C88.8253 92.5283 86.9782 94.2035 85.5094 96.1889C84.0405 98.1743 82.9789 100.431 82.3856 102.828C81.7923 105.225 81.6791 107.716 82.0525 110.158C82.9957 116.225 86.7405 121.362 92.2393 124.136C92.6208 124.408 93.0677 124.268 93.2351 123.872C93.3548 123.786 93.3715 123.681 93.4042 123.476L93.6335 122.033L93.6381 121.894C93.6124 121.596 93.398 121.226 93.1612 121.008C85.5502 116.839 82.8363 107.219 87.0981 99.764C89.3375 95.6821 93.2747 92.9299 97.7624 92.0577C98.2092 91.9181 98.4637 91.6418 98.5457 91.1258L98.775 89.683L98.7902 89.5322C98.8 89.3667 98.7563 89.2024 98.6656 89.0635C98.5748 88.9247 98.4418 88.8187 98.2863 88.7612ZM103.435 95.0721L101.882 94.8252L101.731 94.815C101.38 94.829 101.086 95.0816 100.923 95.5185L100.546 97.8881L100.186 97.8866C97.2048 97.9419 95.0705 99.6545 94.6769 102.131C94.1368 105.529 95.9914 107.197 100.255 108.404C103.071 109.379 103.902 110.146 103.64 111.794C103.379 113.441 101.751 114.345 99.7849 114.032C97.0945 113.605 96.3442 112.325 96.2794 110.729C96.2428 110.302 95.9634 110.045 95.6528 109.996L93.8942 109.716L93.7582 109.707C93.5862 109.706 93.4199 109.768 93.2907 109.882C93.1614 109.995 93.0781 110.152 93.0564 110.323L93.0402 110.425L93.0477 110.739C93.1558 113.234 94.5376 115.227 97.7368 116.242L97.3438 118.716L97.3336 118.867C97.3481 119.214 97.6024 119.508 98.0413 119.67L99.5928 119.917L99.7443 119.927C100.095 119.913 100.389 119.661 100.552 119.225L100.945 116.751L101.307 116.739C104.313 116.586 106.56 114.787 106.985 112.112C107.558 108.507 105.582 106.925 101.319 105.719C98.2795 104.813 97.7907 103.891 98.0201 102.448C98.2494 101.006 99.4321 100.243 101.5 100.572C103.362 100.868 104.299 101.65 104.569 103.279C104.6 103.437 104.678 103.581 104.792 103.694C104.907 103.806 105.054 103.881 105.212 103.908L106.867 104.171L107.003 104.182C107.175 104.182 107.342 104.12 107.471 104.006C107.601 103.893 107.684 103.736 107.707 103.565L107.723 103.463L107.707 103.159C107.62 102.064 107.189 101.024 106.477 100.187C105.764 99.3499 104.806 98.759 103.738 98.4982L104.131 96.0284L104.141 95.8769C104.127 95.5283 103.874 95.2341 103.435 95.0721Z" fill="white"/>
</g>
</g>
<defs>
<clipPath id="clip0_3618_130">
<rect width="197.693" height="191.286" fill="white" transform="translate(30.025) rotate(9.03072)"/>
</clipPath>
<clipPath id="clip1_3618_130">
<rect width="55" height="55" fill="white" transform="translate(77.8866 75.9473) rotate(9.03072)"/>
</clipPath>
</defs>
</svg>
